<svg width="162" height="168" viewBox="0 0 178 184" fill="none" xmlns="http://www.w3.org/2000/svg">
<path d="M89 171.945C138.153 171.945 178 133.564 178 86.2183C178 38.873 138.153 0.492065 89 0.492065C39.8467 0.492065 0 38.873 0 86.2183C0 133.564 39.8467 171.945 89 171.945Z" fill="#E1854F"/>
<path d="M140.6 183.426V183.436H37.4083V183.426C37.4083 177.815 38.3714 172.408 40.1614 167.377C40.4821 166.468 40.8331 165.57 41.2115 164.679V164.67C41.5814 163.779 41.9892 162.908 42.4177 162.046C44.1197 158.589 46.2398 155.356 48.7015 152.396C49.324 151.655 49.956 150.934 50.6078 150.241C50.9285 149.884 51.2691 149.539 51.6097 149.192C51.9503 148.855 52.2909 148.517 52.6409 148.18C54.3817 146.503 56.2492 144.967 58.2142 143.552C59.1971 142.849 60.1886 142.194 61.2198 141.557C61.6569 141.286 62.1044 141.023 62.5519 140.771C62.8139 140.62 63.0675 140.471 63.3295 140.321C63.4468 140.264 63.5537 140.208 63.6701 140.143C63.9038 140.012 64.1365 139.89 64.3702 139.768C64.3901 139.75 64.409 139.75 64.409 139.75C64.8271 139.535 65.2349 139.301 65.6445 139.057C66.8602 138.354 68.0277 137.577 69.1365 136.715C70.7609 135.469 72.2689 134.073 73.6208 132.546C74.8365 131.178 75.9358 129.707 76.8895 128.142C77.95 126.437 78.844 124.629 79.5451 122.736C79.8951 121.78 80.2064 120.806 80.4599 119.803C80.6548 119.101 80.8099 118.388 80.9462 117.667C81.2764 115.868 81.4514 114.012 81.4514 112.121L88.9707 112.158H89.0095L90.3226 112.167L96.7029 112.195C96.7029 114.05 96.8684 115.868 97.1892 117.639C97.3159 118.37 97.4815 119.092 97.6754 119.803C97.9186 120.787 98.2204 121.753 98.5609 122.689C99.261 124.6 100.147 126.427 101.206 128.142C102.072 129.566 103.055 130.905 104.144 132.17C105.564 133.847 107.169 135.365 108.93 136.723C109.3 137.014 109.669 137.295 110.049 137.557C110.389 137.801 110.739 138.034 111.09 138.259C111.167 138.316 111.235 138.362 111.313 138.409C111.663 138.634 112.013 138.859 112.383 139.065C112.781 139.3 113.191 139.534 113.599 139.749C113.667 139.767 113.725 139.797 113.774 139.834C114.63 140.293 115.476 140.771 116.302 141.267C116.702 141.502 117.1 141.745 117.49 142.016C118.297 142.513 119.085 143.056 119.853 143.618C119.853 143.628 119.863 143.628 119.863 143.628H119.873C120.856 144.331 121.809 145.08 122.742 145.849C123.676 146.617 124.571 147.424 125.437 148.258C134.813 157.25 140.6 169.673 140.6 183.426Z" fill="#ECC19C"/>
<path d="M140.6 183.426H37.4083C37.4083 177.815 38.3714 172.408 40.1614 167.377C40.4821 166.469 40.8331 165.57 41.2115 164.679V164.67C41.5814 163.779 41.9892 162.908 42.4177 162.046C44.1197 158.589 46.2398 155.357 48.7015 152.396C49.324 151.655 49.956 150.934 50.6078 150.242C50.9285 149.884 51.2691 149.539 51.6097 149.192C51.9503 148.855 52.2909 148.518 52.6409 148.18C54.3817 146.504 56.2492 144.967 58.2142 143.552C59.1971 142.849 60.1886 142.194 61.2198 141.557C61.6569 141.286 62.1044 141.023 62.5519 140.771C62.8139 140.621 63.0675 140.471 63.3295 140.321C63.4468 140.264 63.5537 140.209 63.6701 140.143C63.9038 140.012 64.1365 139.881 64.3702 139.759C64.3901 139.74 64.409 139.749 64.409 139.749V139.74C64.8271 139.515 65.2349 139.29 65.6445 139.056C66.8602 138.344 68.0277 137.556 69.1166 136.695C69.1261 136.704 69.1261 136.704 69.1365 136.714C74.1752 141.679 81.1884 144.762 88.9697 144.781H89.0473C89.4759 144.781 89.9035 144.771 90.3217 144.744C97.5969 144.434 104.153 141.418 108.929 136.723L108.938 136.714C109.629 137.266 110.349 137.782 111.088 138.259C111.165 138.316 111.233 138.362 111.311 138.409C111.661 138.634 112.021 138.849 112.381 139.065C112.779 139.3 113.189 139.524 113.597 139.74C113.665 139.759 113.714 139.797 113.772 139.824C114.628 140.283 115.474 140.761 116.301 141.268C116.7 141.502 117.098 141.745 117.488 142.017C118.295 142.513 119.083 143.056 119.851 143.619H119.871C120.854 144.33 121.816 145.071 122.74 145.848C123.674 146.617 124.569 147.423 125.435 148.257C134.813 157.25 140.6 169.673 140.6 183.426Z" fill="#5AB7B2"/>
<path d="M104.942 124.045V129.752C104.942 130.65 104.65 131.484 104.144 132.168C103.356 133.274 102.034 133.996 100.536 133.996H76.928C75.6054 133.996 74.419 133.433 73.6206 132.543C72.9394 131.794 72.5212 130.819 72.5212 129.752V124.045C72.5212 122.433 73.455 121.028 74.8268 120.317C75.4493 119.988 76.1693 119.801 76.928 119.801H100.535C101.411 119.801 102.218 120.044 102.898 120.475C104.124 121.217 104.942 122.546 104.942 124.045Z" fill="#5AB7B2"/>
<path d="M110.049 137.555V149.997H62.5525V140.769C62.8145 140.619 63.0681 140.469 63.3302 140.319C63.4475 140.262 63.5544 140.207 63.6707 140.141C63.9044 140.01 64.1371 139.889 64.3708 139.767C64.3907 139.748 64.4096 139.748 64.4096 139.748C64.8278 139.533 65.2355 139.299 65.6452 139.055C66.8609 138.352 68.0283 137.575 69.1371 136.713C70.7615 135.467 72.2695 134.071 73.6214 132.544C74.8371 131.176 75.9365 129.705 76.8901 128.141H101.207C102.072 129.565 103.055 130.905 104.144 132.169C105.564 133.846 107.17 135.364 108.93 136.722C109.299 137.013 109.668 137.293 110.049 137.555Z" fill="#5AB7B2"/>
<path d="M141.194 64.3867C141.194 84.9421 130.057 102.818 113.667 111.906C108.618 114.717 103.065 116.684 97.1891 117.64C94.9422 118.015 92.647 118.23 90.3225 118.286C89.8845 118.296 89.4474 118.304 89.0094 118.304H88.9999C86.2573 118.304 83.5724 118.089 80.9461 117.667C75.0218 116.722 69.4391 114.745 64.3521 111.915C47.9625 102.837 36.8151 84.9503 36.8151 64.3858C36.8151 35.3511 59.0116 11.6755 86.8306 10.5137C86.8694 10.5046 86.8987 10.5046 86.9375 10.5046C87.21 10.4954 87.4825 10.4854 87.7549 10.4763C88.1636 10.4672 88.5619 10.4581 88.9706 10.4581H89.0094C89.4276 10.4581 89.8457 10.4672 90.2639 10.4763H90.3519C90.6432 10.4854 90.9356 10.4954 91.227 10.5137H91.2563C91.3925 10.5228 91.5288 10.5328 91.665 10.5419C91.8306 10.551 91.9961 10.5611 92.1607 10.5702C119.512 12.266 141.194 35.6983 141.194 64.3867Z" fill="#141720"/>
<path d="M128.607 48.5965V77.0881C128.607 77.5009 128.597 77.9128 128.588 78.3246C128.579 78.6618 128.568 78.9899 128.548 79.327C128.539 79.6268 128.519 79.9267 128.49 80.2265C128.48 80.4415 128.46 80.6575 128.441 80.8735C128.432 81.0047 128.422 81.1268 128.403 81.2571C128.383 81.4913 128.363 81.7346 128.324 81.9688C128.285 82.419 128.227 82.8591 128.158 83.3093C128.149 83.4213 128.129 83.5343 128.11 83.6464C128.081 83.8715 128.042 84.0957 128.003 84.3208V84.349C127.945 84.6771 127.887 84.9951 127.828 85.3232C127.741 85.7724 127.653 86.2226 127.556 86.6627C127.546 86.6818 127.546 86.7001 127.536 86.7192C127.526 86.7848 127.517 86.8504 127.497 86.916C127.488 86.9352 127.488 86.9534 127.478 86.9725C127.43 87.2159 127.371 87.45 127.313 87.6842C127.293 87.7872 127.274 87.8902 127.235 87.9932C127.206 88.1617 127.158 88.3303 127.118 88.4989C127.088 88.5928 127.07 88.6957 127.031 88.7887C127.011 88.8734 126.982 88.9582 126.963 89.0329C126.758 89.8011 126.526 90.5502 126.281 91.3001C126.165 91.6564 126.048 92.0027 125.922 92.359C125.912 92.3964 125.893 92.4337 125.883 92.472C125.766 92.7901 125.649 93.109 125.533 93.427C125.494 93.5209 125.456 93.6138 125.416 93.7177C125.299 94.0175 125.182 94.3173 125.056 94.6171C124.911 94.9826 124.755 95.3389 124.599 95.6952C124.463 96.0141 124.317 96.3321 124.172 96.6511C124.152 96.7076 124.123 96.7541 124.104 96.8105C123.938 97.1477 123.783 97.4849 123.617 97.8129C123.452 98.1592 123.277 98.5064 123.092 98.8527C122.742 99.5371 122.363 100.22 121.983 100.886L121.457 101.785C119.96 104.268 118.297 106.601 116.488 108.755C116.245 109.065 115.992 109.364 115.729 109.655C115.369 110.077 115 110.489 114.63 110.89C114.318 111.229 113.998 111.575 113.667 111.903C113.657 111.922 113.647 111.93 113.628 111.949C112.694 112.915 111.74 113.832 110.769 114.695C110.574 114.882 110.371 115.051 110.165 115.229C109.834 115.519 109.504 115.8 109.163 116.073C108.9 116.297 108.628 116.513 108.356 116.728C107.656 117.281 106.955 117.815 106.246 118.312C105.953 118.527 105.653 118.734 105.351 118.931C104.864 119.268 104.369 119.587 103.872 119.896C103.6 120.073 103.318 120.243 103.036 120.402C102.987 120.43 102.948 120.459 102.899 120.477C101.956 121.038 100.993 121.554 100.05 122.004C99.8068 122.126 99.5637 122.238 99.3205 122.351C99.0774 122.464 98.8248 122.576 98.5618 122.688C98.2411 122.828 97.9204 122.96 97.5987 123.081C97.4729 123.139 97.3461 123.184 97.2193 123.222C96.84 123.372 96.4511 123.512 96.0718 123.635C95.5949 123.803 95.1087 123.943 94.6328 124.075C94.3017 124.169 93.9611 124.252 93.6309 124.327C93.611 124.336 93.5921 124.346 93.5628 124.346C93.2317 124.421 92.9015 124.496 92.5713 124.552C92.4833 124.571 92.3954 124.59 92.3083 124.6C92.0359 124.647 91.7634 124.692 91.4909 124.722C91.1021 124.778 90.7133 124.825 90.3244 124.844C90.1882 124.863 90.0614 124.871 89.9252 124.871C89.6139 124.889 89.3131 124.899 89.0113 124.899H88.9725C88.6707 124.899 88.3689 124.889 88.0681 124.871C87.9507 124.871 87.8344 124.862 87.7171 124.844C87.4446 124.834 87.1627 124.806 86.8703 124.769C86.8117 124.769 86.7445 124.759 86.6859 124.75C86.3254 124.703 85.9659 124.647 85.596 124.58C85.2847 124.533 84.9735 124.468 84.6528 124.394C82.9896 124.028 81.2772 123.475 79.5459 122.735C78.0672 122.107 76.5696 121.349 75.0814 120.468C74.9935 120.421 74.9159 120.365 74.8279 120.318C74.1666 119.925 73.4949 119.503 72.8431 119.063C72.4731 118.81 72.1042 118.556 71.7343 118.295C70.5763 117.479 69.4297 116.59 68.301 115.634C67.9897 115.361 67.6785 115.09 67.3672 114.809C67.056 114.537 66.7447 114.257 66.4429 113.985C65.723 113.32 65.0229 112.636 64.3521 111.915C64.3039 111.877 64.2651 111.83 64.2263 111.793C63.9444 111.503 63.6625 111.203 63.3796 110.893C62.601 110.05 61.8422 109.179 61.1232 108.271C60.8413 107.943 60.5783 107.605 60.3153 107.267C59.3323 106.012 58.3995 104.7 57.5234 103.342C57.2898 102.976 57.0561 102.601 56.8328 102.236C56.5604 101.796 56.2983 101.346 56.0353 100.897C55.0627 99.2099 54.1678 97.4585 53.3901 95.6505C53.2737 95.3881 53.1564 95.1256 53.059 94.8632C52.9029 94.526 52.7666 94.1797 52.6408 93.8417C52.4459 93.345 52.2614 92.8484 52.0855 92.3517C51.9105 91.8551 51.7458 91.3493 51.5803 90.8436C51.4242 90.3561 51.2785 89.8695 51.1422 89.3728C50.9861 88.8479 50.8405 88.3139 50.7146 87.7708C50.7052 87.7143 50.6853 87.6587 50.6749 87.6022C50.4904 86.8532 50.3248 86.0941 50.1792 85.3259C49.9852 84.3135 49.8291 83.2828 49.7127 82.2431C49.6636 81.915 49.6342 81.587 49.6058 81.2589C49.5671 80.9126 49.5377 80.5746 49.5188 80.2283C49.4696 79.6004 49.4403 78.9634 49.4214 78.3265C49.4119 77.9137 49.4015 77.5018 49.4015 77.0899V48.5965C49.4015 28.2379 65.9661 11.5982 86.8306 10.5111C86.8694 10.502 86.8987 10.502 86.9375 10.502C87.21 10.4929 87.4824 10.4828 87.7549 10.4737C88.1636 10.4646 88.5619 10.4555 88.9706 10.4555H89.0094C89.4276 10.4555 89.8457 10.4646 90.2639 10.4737H90.3519C90.6432 10.4828 90.9356 10.4929 91.227 10.5111H91.2563C91.3925 10.5202 91.5288 10.5302 91.665 10.5393C91.9573 10.5585 92.2487 10.5767 92.5306 10.605C92.6763 10.6141 92.8126 10.6241 92.9592 10.6423C93.0567 10.6514 93.1437 10.6615 93.2411 10.6706C94.7879 10.83 96.3054 11.0733 97.7841 11.3923C100.362 11.9545 102.842 12.7601 105.196 13.7816C108.406 15.1686 111.391 16.9483 114.076 19.0752C116.333 20.8558 118.386 22.8605 120.175 25.0713C125.388 31.4702 128.529 39.5093 128.598 48.2593C128.607 48.3723 128.607 48.4844 128.607 48.5965Z" fill="#ECC19C"/>
<path d="M137.439 62.7156H40.5795C40.5795 34.6368 61.0939 11.7386 86.8306 10.5111C86.8694 10.502 86.8987 10.502 86.9375 10.502C87.21 10.4929 87.4825 10.4828 87.7549 10.4737C88.1636 10.4646 88.5619 10.4555 88.9706 10.4555H89.0094C89.4276 10.4555 89.8457 10.4646 90.2639 10.4737H90.3519C90.6433 10.4828 90.9356 10.4929 91.227 10.5111H91.2563C91.3926 10.5202 91.5288 10.5302 91.665 10.5393C91.8306 10.5485 91.9961 10.5585 92.1608 10.5676C92.2781 10.5767 92.4039 10.5867 92.5307 10.6059C92.6764 10.615 92.8126 10.625 92.9592 10.6432C93.0567 10.6523 93.1437 10.6624 93.2412 10.6715C118.004 12.9761 137.439 35.3959 137.439 62.7156Z" fill="#141720"/>
</svg>
