<svg width="162" height="168" viewBox="0 0 162 168" fill="none" xmlns="http://www.w3.org/2000/svg">
<path d="M81 156.978C125.735 156.978 162 122.047 162 78.957C162 35.8675 125.735 0.936523 81 0.936523C36.2649 0.936523 0 35.8675 0 78.957C0 122.047 36.2649 156.978 81 156.978Z" fill="#E1854F"/>
<path d="M127.962 167.427V167.436H34.0458V167.427C34.0458 162.32 34.9223 157.399 36.5514 152.82C36.8432 151.994 37.1627 151.176 37.5071 150.365V150.356C37.8438 149.546 38.2149 148.753 38.6049 147.969C40.1539 144.822 42.0834 141.88 44.3238 139.186C44.8904 138.512 45.4655 137.856 46.0588 137.225C46.3507 136.9 46.6606 136.586 46.9706 136.27C47.2806 135.963 47.5905 135.656 47.9091 135.349C49.4934 133.823 51.1931 132.425 52.9814 131.137C53.876 130.498 54.7784 129.901 55.7169 129.322C56.1147 129.074 56.5219 128.836 56.9292 128.606C57.1677 128.469 57.3985 128.333 57.637 128.196C57.7437 128.145 57.841 128.094 57.947 128.034C58.1596 127.915 58.3714 127.805 58.5841 127.694C58.6022 127.677 58.6194 127.677 58.6194 127.677C59 127.481 59.3711 127.268 59.7439 127.046C60.8503 126.406 61.9128 125.699 62.9219 124.914C64.4003 123.781 65.7728 122.51 67.0032 121.12C68.1096 119.875 69.1101 118.537 69.978 117.113C70.9433 115.561 71.7569 113.916 72.3949 112.192C72.7135 111.322 72.9968 110.436 73.2275 109.523C73.4049 108.884 73.5461 108.235 73.6701 107.578C73.9706 105.941 74.1299 104.253 74.1299 102.531L80.9733 102.565H81.0086L82.2037 102.573L88.0105 102.599C88.0105 104.287 88.1612 105.941 88.453 107.554C88.5684 108.219 88.7191 108.876 88.8956 109.523C89.1169 110.418 89.3916 111.297 89.7015 112.149C90.3387 113.889 91.1446 115.552 92.1089 117.112C92.8968 118.408 93.7914 119.627 94.7824 120.778C96.0748 122.304 97.536 123.686 99.1384 124.922C99.475 125.186 99.8108 125.443 100.157 125.681C100.466 125.903 100.785 126.115 101.104 126.32C101.175 126.372 101.237 126.414 101.307 126.456C101.626 126.661 101.944 126.866 102.281 127.053C102.644 127.267 103.016 127.48 103.388 127.676C103.449 127.693 103.503 127.719 103.547 127.753C104.326 128.171 105.096 128.606 105.848 129.058C106.212 129.271 106.574 129.492 106.929 129.74C107.663 130.192 108.381 130.686 109.08 131.198C109.08 131.207 109.089 131.207 109.089 131.207H109.098C109.992 131.846 110.859 132.528 111.709 133.228C112.559 133.927 113.374 134.661 114.161 135.42C122.695 143.604 127.962 154.91 127.962 167.427Z" fill="#ECC19C"/>
<path d="M127.962 167.427H34.0458C34.0458 162.32 34.9223 157.399 36.5514 152.821C36.8432 151.994 37.1627 151.176 37.5071 150.365V150.357C37.8438 149.546 38.2149 148.753 38.6049 147.969C40.1539 144.822 42.0834 141.881 44.3238 139.186C44.8904 138.512 45.4655 137.856 46.0588 137.225C46.3507 136.9 46.6606 136.586 46.9706 136.27C47.2806 135.963 47.5905 135.656 47.9091 135.349C49.4934 133.823 51.1931 132.425 52.9814 131.137C53.876 130.498 54.7784 129.901 55.7169 129.322C56.1147 129.075 56.5219 128.836 56.9292 128.606C57.1677 128.469 57.3985 128.333 57.637 128.196C57.7437 128.145 57.841 128.094 57.947 128.035C58.1596 127.915 58.3714 127.796 58.5841 127.685C58.6022 127.668 58.6194 127.676 58.6194 127.676V127.668C59 127.463 59.3711 127.258 59.7439 127.045C60.8503 126.397 61.9128 125.68 62.9039 124.896C62.9125 124.905 62.9125 124.905 62.9219 124.914C67.5078 129.433 73.8905 132.239 80.9725 132.256H81.0431C81.4331 132.256 81.8223 132.247 82.2029 132.222C88.8241 131.94 94.791 129.195 99.1375 124.922L99.1461 124.914C99.7747 125.416 100.43 125.886 101.102 126.32C101.173 126.372 101.235 126.414 101.306 126.456C101.624 126.661 101.951 126.857 102.279 127.053C102.642 127.267 103.015 127.471 103.386 127.668C103.448 127.685 103.493 127.719 103.545 127.744C104.324 128.162 105.094 128.597 105.847 129.058C106.21 129.271 106.572 129.493 106.927 129.74C107.662 130.192 108.379 130.686 109.078 131.198H109.096C109.991 131.845 110.866 132.52 111.708 133.227C112.557 133.926 113.372 134.66 114.16 135.419C122.695 143.604 127.962 154.911 127.962 167.427Z" fill="#5AB7B2"/>
<path d="M95.5089 113.384V118.577C95.5089 119.395 95.2428 120.154 94.783 120.777C94.0658 121.783 92.8621 122.44 91.4991 122.44H70.0131C68.8094 122.44 67.7297 121.928 67.003 121.118C66.383 120.436 66.0024 119.549 66.0024 118.577V113.384C66.0024 111.917 66.8523 110.638 68.1008 109.99C68.6673 109.692 69.3226 109.521 70.0131 109.521H91.4982C92.2955 109.521 93.03 109.742 93.6491 110.135C94.765 110.81 95.5089 112.02 95.5089 113.384Z" fill="#5AB7B2"/>
<path d="M100.157 125.679V137.003H56.9298V128.604C57.1683 128.467 57.3991 128.331 57.6376 128.195C57.7443 128.143 57.8416 128.093 57.9475 128.033C58.1602 127.913 58.372 127.803 58.5847 127.692C58.6028 127.675 58.62 127.675 58.62 127.675C59.0006 127.48 59.3717 127.267 59.7445 127.044C60.8509 126.405 61.9134 125.697 62.9225 124.913C64.4009 123.779 65.7734 122.509 67.0038 121.119C68.1102 119.874 69.1107 118.535 69.9786 117.111H92.1095C92.8974 118.407 93.792 119.627 94.783 120.778C96.0754 122.304 97.5366 123.685 99.1389 124.921C99.4747 125.186 99.8105 125.441 100.157 125.679Z" fill="#5AB7B2"/>
<path d="M128.503 59.0883C128.503 77.796 118.367 94.0655 103.449 102.337C98.855 104.894 93.8008 106.685 88.453 107.555C86.4081 107.896 84.3192 108.091 82.2037 108.143C81.805 108.152 81.4072 108.159 81.0086 108.159H81C78.5039 108.159 76.0603 107.964 73.6701 107.58C68.2783 106.719 63.1974 104.92 58.5677 102.344C43.6513 94.082 33.5059 77.8035 33.5059 59.0875C33.5059 32.6627 53.7072 11.1152 79.0256 10.0578C79.0609 10.0495 79.0876 10.0495 79.1229 10.0495C79.3709 10.0412 79.6189 10.0321 79.8669 10.0238C80.2388 10.0155 80.6013 10.0072 80.9733 10.0072H81.0086C81.3891 10.0072 81.7697 10.0155 82.1503 10.0238H82.2304C82.4956 10.0321 82.7616 10.0412 83.0268 10.0578H83.0535C83.1775 10.0661 83.3015 10.0752 83.4255 10.0835C83.5761 10.0918 83.7268 10.1009 83.8766 10.1092C108.77 11.6527 128.503 32.9786 128.503 59.0883Z" fill="#FFB600"/>
<path d="M117.047 44.7169V70.6475C117.047 71.0232 117.038 71.398 117.03 71.7729C117.021 72.0798 117.011 72.3783 116.993 72.6852C116.985 72.9581 116.967 73.2309 116.94 73.5038C116.931 73.6995 116.913 73.896 116.896 74.0926C116.887 74.212 116.879 74.3232 116.861 74.4418C116.843 74.6549 116.825 74.8764 116.789 75.0895C116.754 75.4992 116.701 75.8998 116.639 76.3095C116.63 76.4115 116.612 76.5143 116.595 76.6163C116.568 76.8212 116.533 77.0252 116.497 77.23V77.2558C116.444 77.5543 116.392 77.8438 116.338 78.1423C116.259 78.5512 116.179 78.9609 116.09 79.3615C116.082 79.3789 116.082 79.3955 116.072 79.4129C116.063 79.4726 116.055 79.5323 116.037 79.592C116.028 79.6095 116.028 79.6261 116.02 79.6435C115.976 79.8649 115.922 80.078 115.869 80.2912C115.851 80.3849 115.834 80.4786 115.798 80.5723C115.772 80.7258 115.728 80.8792 115.691 81.0326C115.665 81.1181 115.648 81.2118 115.612 81.2964C115.594 81.3735 115.568 81.4506 115.55 81.5186C115.364 82.2178 115.152 82.8995 114.93 83.5821C114.824 83.9063 114.718 84.2215 114.603 84.5458C114.595 84.5798 114.576 84.6138 114.568 84.6486C114.461 84.938 114.355 85.2283 114.249 85.5178C114.214 85.6032 114.179 85.6878 114.143 85.7823C114.037 86.0552 113.93 86.328 113.815 86.6009C113.683 86.9335 113.541 87.2578 113.399 87.582C113.275 87.8723 113.143 88.1618 113.01 88.452C112.992 88.5034 112.966 88.5457 112.948 88.5972C112.798 88.904 112.656 89.2109 112.506 89.5094C112.355 89.8246 112.196 90.1406 112.028 90.4557C111.709 91.0786 111.364 91.7006 111.019 92.306L110.54 93.1246C109.177 95.3846 107.663 97.5077 106.017 99.4683C105.796 99.7503 105.566 100.022 105.326 100.287C104.998 100.671 104.663 101.046 104.326 101.411C104.043 101.719 103.751 102.034 103.449 102.333C103.441 102.35 103.431 102.358 103.414 102.375C102.564 103.254 101.696 104.089 100.812 104.874C100.635 105.044 100.45 105.198 100.263 105.36C99.9614 105.624 99.6609 105.88 99.351 106.128C99.1116 106.332 98.8636 106.529 98.6165 106.724C97.9794 107.228 97.3413 107.714 96.6956 108.166C96.4295 108.361 96.1557 108.55 95.8811 108.729C95.4385 109.036 94.9873 109.326 94.5353 109.607C94.2873 109.769 94.0307 109.923 93.7741 110.068C93.7302 110.093 93.694 110.12 93.6501 110.136C92.7917 110.647 91.9152 111.117 91.0567 111.526C90.8354 111.637 90.6142 111.739 90.3929 111.841C90.1716 111.944 89.9417 112.046 89.7023 112.148C89.4105 112.276 89.1186 112.396 88.8258 112.507C88.7113 112.559 88.5959 112.6 88.4805 112.634C88.1353 112.771 87.7814 112.899 87.4361 113.01C87.0022 113.163 86.5596 113.291 86.1265 113.411C85.8251 113.496 85.5152 113.572 85.2147 113.64C85.1966 113.649 85.1794 113.658 85.1527 113.658C84.8513 113.726 84.5508 113.794 84.2503 113.845C84.1703 113.863 84.0902 113.88 84.011 113.888C83.763 113.931 83.515 113.973 83.267 113.999C82.9132 114.051 82.5593 114.093 82.2054 114.111C82.0814 114.128 81.966 114.135 81.8421 114.135C81.5588 114.152 81.285 114.161 81.0103 114.161H80.975C80.7003 114.161 80.4257 114.152 80.1519 114.135C80.0451 114.135 79.9392 114.127 79.8324 114.111C79.5844 114.101 79.3279 114.077 79.0618 114.043C79.0084 114.043 78.9473 114.033 78.8939 114.025C78.5658 113.982 78.2387 113.931 77.902 113.871C77.6187 113.828 77.3354 113.769 77.0436 113.701C75.5299 113.368 73.9714 112.865 72.3958 112.191C71.05 111.62 69.687 110.93 68.3326 110.128C68.2525 110.086 68.1819 110.034 68.1018 109.992C67.5 109.634 66.8886 109.25 66.2954 108.849C65.9587 108.619 65.6229 108.388 65.2863 108.15C64.2324 107.408 63.1888 106.598 62.1616 105.728C61.8783 105.48 61.5951 105.233 61.3118 104.978C61.0285 104.731 60.7452 104.475 60.4706 104.228C59.8153 103.623 59.1782 103.001 58.5677 102.344C58.5238 102.31 58.4885 102.267 58.4532 102.233C58.1966 101.969 57.94 101.696 57.6826 101.414C56.9739 100.647 56.2834 99.854 55.629 99.0271C55.3724 98.7285 55.1331 98.4217 54.8937 98.114C53.9991 96.9711 53.1501 95.7777 52.3528 94.5411C52.1402 94.2086 51.9275 93.8669 51.7243 93.5351C51.4763 93.1346 51.2378 92.7248 50.9984 92.316C50.1133 90.7808 49.2988 89.1868 48.591 87.5414C48.4851 87.3025 48.3783 87.0637 48.2897 86.8248C48.1476 86.518 48.0236 86.2028 47.9091 85.8951C47.7317 85.4431 47.5638 84.9911 47.4037 84.5391C47.2444 84.0871 47.0946 83.6268 46.9439 83.1666C46.8018 82.7229 46.6692 82.28 46.5452 81.828C46.4032 81.3503 46.2706 80.8643 46.156 80.37C46.1474 80.3186 46.1293 80.268 46.1199 80.2166C45.952 79.5348 45.8013 78.844 45.6687 78.1448C45.4922 77.2234 45.3501 76.2854 45.2442 75.3391C45.1994 75.0406 45.1727 74.742 45.1469 74.4434C45.1116 74.1283 45.0849 73.8206 45.0677 73.5054C45.0229 72.934 44.9962 72.3543 44.979 71.7746C44.9704 71.3989 44.9609 71.024 44.9609 70.6491V44.7169C44.9609 26.1884 60.0366 11.0444 79.0256 10.055C79.0609 10.0467 79.0876 10.0467 79.1229 10.0467C79.3709 10.0384 79.6189 10.0292 79.8669 10.021C80.2388 10.0127 80.6013 10.0044 80.9733 10.0044H81.0086C81.3891 10.0044 81.7697 10.0127 82.1503 10.021H82.2304C82.4956 10.0292 82.7616 10.0384 83.0268 10.055H83.0535C83.1775 10.0632 83.3015 10.0724 83.4255 10.0807C83.6915 10.0981 83.9567 10.1147 84.2133 10.1404C84.3459 10.1487 84.4699 10.1578 84.6034 10.1744C84.692 10.1827 84.7713 10.1918 84.8599 10.2001C86.2677 10.3452 87.6488 10.5667 88.9946 10.8569C91.3409 11.3686 93.5976 12.1018 95.7398 13.0315C98.6613 14.2938 101.379 15.9135 103.822 17.8492C105.876 19.4698 107.744 21.2943 109.372 23.3064C114.118 29.1301 116.976 36.4466 117.039 44.4101C117.047 44.5129 117.047 44.6149 117.047 44.7169Z" fill="#ECC19C"/>
<path d="M125.085 57.5669H36.9319C36.9319 32.0121 55.6023 11.1721 79.0256 10.055C79.0609 10.0467 79.0876 10.0467 79.1229 10.0467C79.3709 10.0384 79.6189 10.0292 79.8669 10.021C80.2388 10.0127 80.6013 10.0044 80.9733 10.0044H81.0086C81.3892 10.0044 81.7697 10.0127 82.1503 10.021H82.2304C82.4956 10.0292 82.7616 10.0384 83.0268 10.055H83.0535C83.1775 10.0632 83.3015 10.0724 83.4255 10.0807C83.5762 10.089 83.7268 10.0981 83.8767 10.1064C83.9834 10.1147 84.0979 10.1238 84.2133 10.1412C84.3459 10.1495 84.4699 10.1586 84.6034 10.1752C84.692 10.1835 84.7713 10.1926 84.8599 10.2009C107.397 12.2984 125.085 32.7029 125.085 57.5669Z" fill="#FFB600"/>
</svg>
