<svg width="162" height="168" viewBox="0 0 158 163" fill="none" xmlns="http://www.w3.org/2000/svg">
<path d="M79 154.642C122.631 154.642 158 120.032 158 77.3387C158 34.6454 122.631 0.035614 79 0.035614C35.3695 0.035614 0 34.6454 0 77.3387C0 120.032 35.3695 154.642 79 154.642Z" fill="#7F7DC5"/>
<path d="M124.765 162.432V162.44H33.176V162.432C33.176 150.004 38.338 138.759 46.6878 130.648C47.0766 130.268 47.4654 129.905 47.8702 129.541C49.071 128.452 50.3315 127.43 51.6432 126.475C52.5065 125.841 53.4051 125.25 54.3112 124.676C55.2181 124.102 56.1502 123.561 57.1084 123.053C57.126 123.036 57.1437 123.036 57.1437 123.036C57.514 122.833 57.8768 122.631 58.2404 122.411C59.3279 121.785 60.3558 121.076 61.3391 120.307C65.5094 117.063 68.7391 112.703 70.5774 107.702V107.693C71.6741 104.711 72.2704 101.492 72.2704 98.1285L85.8082 98.1876C85.8082 101.507 86.386 104.701 87.4575 107.658C89.279 112.685 92.491 117.053 96.6613 120.313C96.946 120.541 97.2391 120.761 97.533 120.972C97.9386 121.268 98.3534 121.556 98.7674 121.826C99.0782 122.028 99.3981 122.231 99.7181 122.418C100.072 122.629 100.434 122.84 100.797 123.034C100.832 123.043 100.857 123.051 100.884 123.068C100.909 123.084 100.936 123.102 100.962 123.118C102.024 123.692 103.059 124.3 104.06 124.943C104.397 125.155 104.734 125.374 105.061 125.603C105.494 125.907 105.934 126.211 106.357 126.532H106.375C117.538 134.695 124.765 147.723 124.765 162.432Z" fill="#A57561"/>
<path d="M124.765 162.432H33.176C33.176 150.004 38.338 138.759 46.6878 130.648C47.0766 130.268 47.4654 129.905 47.8702 129.541C49.071 128.452 50.3315 127.421 51.6432 126.466C52.5065 125.84 53.4051 125.241 54.3112 124.675C55.2181 124.101 56.1502 123.56 57.1084 123.052C57.126 123.035 57.1437 123.035 57.1437 123.035C57.514 122.832 57.8768 122.63 58.2404 122.41C59.3279 121.784 60.3558 121.075 61.3391 120.306C65.8294 124.8 72.0797 127.58 79.0128 127.58C85.9207 127.58 92.1711 124.792 96.6613 120.314C96.946 120.542 97.2391 120.762 97.533 120.973C97.9386 121.269 98.3534 121.557 98.7674 121.827C99.0782 122.029 99.3981 122.232 99.7181 122.419C100.072 122.638 100.434 122.841 100.797 123.035C100.832 123.044 100.857 123.052 100.884 123.069C100.909 123.078 100.936 123.094 100.962 123.111C102.024 123.686 103.059 124.294 104.06 124.944C104.397 125.156 104.734 125.374 105.061 125.604C105.494 125.908 105.934 126.212 106.357 126.533H106.375C117.538 134.695 124.765 147.723 124.765 162.432Z" fill="#007BFE"/>
<path d="M43.8206 38.4999V66.5348C43.8206 90.3459 65.1817 109.647 78.9706 109.647C92.7604 109.647 114.121 90.3459 114.121 66.5348V38.4999H43.8206Z" fill="#A57561"/>
<path d="M43.8206 63.1623C45.5531 63.1623 46.9563 61.7892 46.9563 60.0948V40.592H43.8206V63.1623Z" fill="#141720"/>
<path d="M114.122 63.1623V40.592H110.987V60.0948C110.987 61.7892 112.39 63.1623 114.122 63.1623Z" fill="#141720"/>
<path d="M114.117 39.7487C114.117 43.7621 113.842 44.7292 110.982 44.5156C110.866 42.5705 96.5871 40.9854 78.9772 40.9854C61.3548 40.9854 47.0754 42.5705 46.9604 44.5156C44.1002 44.7292 43.8247 43.7621 43.8247 39.7487C43.8247 39.3551 43.8365 38.9402 43.8474 38.5005C44.2841 28.5971 49.9928 10.0836 78.9772 10.0836C107.949 10.0836 113.659 28.5971 114.095 38.5005C114.105 38.9402 114.117 39.356 114.117 39.7487Z" fill="#141720"/>
<path d="M96.6612 120.105C93.7077 129.001 87.7588 137.804 78.9959 145.002C70.2321 137.804 64.2925 129.001 61.3398 120.105C61.3835 120.121 61.4347 120.138 61.4784 120.155C66.1231 124.226 72.2711 126.711 78.9959 126.711C85.7216 126.711 91.8602 124.235 96.5058 120.164C96.557 120.147 96.6091 120.122 96.6612 120.105Z" fill="white"/>
</svg>
