<svg width="162" height="168" viewBox="0 0 162 168" fill="none" xmlns="http://www.w3.org/2000/svg">
<path d="M81 156.978C125.735 156.978 162 122.044 162 78.9509C162 35.8579 125.735 0.924103 81 0.924103C36.2649 0.924103 0 35.8579 0 78.9509C0 122.044 36.2649 156.978 81 156.978Z" fill="#32880A"/>
<path d="M50.2975 124.802C50.2975 128.102 48.9431 130.941 47.0041 132.136C46.3755 132.529 45.685 132.741 44.9591 132.741C44.2333 132.741 43.5428 132.528 42.9142 132.136C40.9752 130.942 39.6208 128.103 39.6208 124.802C39.6208 123.088 39.9833 121.494 40.6213 120.197C41.577 118.176 43.1622 116.863 44.9591 116.863C46.7561 116.863 48.3404 118.176 49.297 120.197C49.935 121.493 50.2975 123.088 50.2975 124.802Z" fill="black"/>
<path d="M50.2975 115.583C50.2975 117.306 49.935 118.901 49.297 120.197C48.3318 122.21 46.7475 123.515 44.9591 123.515C43.1708 123.515 41.5865 122.21 40.6213 120.197C39.9841 118.901 39.6208 117.307 39.6208 115.583C39.6208 113.861 39.9833 112.266 40.6213 110.97C41.5865 108.957 43.1708 107.644 44.9591 107.644C46.7475 107.644 48.3318 108.957 49.297 110.97C49.935 112.266 50.2975 113.861 50.2975 115.583Z" fill="black"/>
<path d="M50.2975 106.356C50.2975 108.079 49.935 109.673 49.297 110.97C48.3318 112.982 46.7475 114.296 44.9591 114.296C43.1708 114.296 41.5865 112.982 40.6213 110.97C39.9841 109.673 39.6208 108.079 39.6208 106.356C39.6208 104.643 39.9833 103.048 40.6213 101.752C41.577 99.7303 43.1622 98.4165 44.9591 98.4165C46.7561 98.4165 48.3404 99.7303 49.297 101.752C49.935 103.048 50.2975 104.643 50.2975 106.356Z" fill="black"/>
<path d="M50.2975 97.1384C50.2975 98.8611 49.935 100.455 49.297 101.752C48.3318 103.765 46.7475 105.078 44.9591 105.078C43.1708 105.078 41.5865 103.765 40.6213 101.752C39.9841 100.456 39.6208 98.8619 39.6208 97.1384C39.6208 95.4248 39.9833 93.8298 40.6213 92.5334C41.577 90.5121 43.1622 89.1983 44.9591 89.1983C46.7561 89.1983 48.3404 90.5121 49.297 92.5334C49.935 93.8298 50.2975 95.4248 50.2975 97.1384Z" fill="black"/>
<path d="M50.2975 87.9119C50.2975 88.816 50.2002 89.6852 50.0056 90.4956C49.8377 91.2288 49.5983 91.9197 49.297 92.5334C48.3318 94.5456 46.7475 95.8503 44.9591 95.8503C43.1708 95.8503 41.5865 94.5456 40.6213 92.5334C39.9841 91.2371 39.6208 89.6429 39.6208 87.9119C39.6208 86.1983 39.9833 84.6034 40.6213 83.3061C41.577 81.294 43.1622 79.9802 44.9591 79.9802C45.3569 79.9802 45.7375 80.049 46.1095 80.1685C47.4286 80.5948 48.5522 81.7377 49.2961 83.3061C49.935 84.6034 50.2975 86.1983 50.2975 87.9119Z" fill="black"/>
<path d="M50.2971 78.6937C50.2971 80.4156 49.9346 82.0106 49.2966 83.307C48.8893 84.1687 48.3581 84.9019 47.7476 85.4568C46.9331 86.2066 45.9774 86.6329 44.9596 86.6329C43.1713 86.6329 41.587 85.32 40.6218 83.307C39.9846 82.0106 39.6213 80.4164 39.6213 78.6937C39.6213 76.9801 39.9838 75.3852 40.6218 74.0888C41.5775 72.0667 43.1627 70.7537 44.9596 70.7537C46.7566 70.7537 48.3409 72.0667 49.2975 74.0888C49.9346 75.3843 50.2971 76.9793 50.2971 78.6937Z" fill="black"/>
<path d="M50.2971 69.4748C50.2971 69.5685 50.2971 69.663 50.2885 69.7476C50.2532 71.3675 49.8993 72.8605 49.2975 74.088C48.439 75.8779 47.0932 77.1145 45.5348 77.3617C45.3488 77.3957 45.1542 77.414 44.9596 77.414C43.1713 77.414 41.587 76.1002 40.6218 74.088C39.9846 72.7916 39.6213 71.1975 39.6213 69.4739C39.6213 67.7512 39.9838 66.1563 40.6218 64.8599C40.9843 64.101 41.4363 63.4358 41.959 62.9074C42.8174 62.0374 43.8532 61.5347 44.9596 61.5347C46.748 61.5347 48.3323 62.8485 49.2975 64.8607C49.9346 66.1571 50.2971 67.7521 50.2971 69.4748Z" fill="black"/>
<path d="M50.2976 60.2475C50.2976 61.9702 49.9351 63.5652 49.2971 64.8616C48.4387 66.6614 47.0748 67.9064 45.5086 68.1444C45.5 68.1361 45.5 68.1444 45.5 68.1444C45.3235 68.1701 45.1461 68.1876 44.9601 68.1876C43.1718 68.1876 41.5875 66.8746 40.6223 64.8616C39.9851 63.5652 39.6218 61.9711 39.6218 60.2475C39.6218 59.2506 39.7458 58.2868 39.9756 57.4084C40.7454 54.4316 42.6844 52.3166 44.9601 52.3166C47.9074 52.3174 50.2976 55.8649 50.2976 60.2475Z" fill="black"/>
<path d="M50.1829 142.232H39.7361L42.915 132.135L44.9599 125.629L47.004 132.135L47.9959 135.273L50.1829 142.232Z" fill="black"/>
<path d="M117.047 132.739C119.994 132.739 122.384 129.185 122.384 124.801C122.384 120.418 119.994 116.864 117.047 116.864C114.1 116.864 111.71 120.418 111.71 124.801C111.71 129.185 114.1 132.739 117.047 132.739Z" fill="black"/>
<path d="M117.047 123.517C119.994 123.517 122.384 119.963 122.384 115.579C122.384 111.195 119.994 107.641 117.047 107.641C114.1 107.641 111.71 111.195 111.71 115.579C111.71 119.963 114.1 123.517 117.047 123.517Z" fill="black"/>
<path d="M117.047 114.295C119.994 114.295 122.384 110.742 122.384 106.358C122.384 101.975 119.994 98.4217 117.047 98.4217C114.1 98.4217 111.71 101.975 111.71 106.358C111.71 110.742 114.1 114.295 117.047 114.295Z" fill="black"/>
<path d="M117.047 105.074C119.994 105.074 122.384 101.521 122.384 97.1369C122.384 92.7531 119.994 89.1994 117.047 89.1994C114.1 89.1994 111.71 92.7531 111.71 97.1369C111.71 101.521 114.1 105.074 117.047 105.074Z" fill="black"/>
<path d="M117.047 95.853C119.994 95.853 122.384 92.2992 122.384 87.9155C122.384 83.5317 119.994 79.9779 117.047 79.9779C114.1 79.9779 111.71 83.5317 111.71 87.9155C111.71 92.2992 114.1 95.853 117.047 95.853Z" fill="black"/>
<path d="M117.047 86.6315C119.994 86.6315 122.384 83.0781 122.384 78.6948C122.384 74.3115 119.994 70.7581 117.047 70.7581C114.1 70.7581 111.71 74.3115 111.71 78.6948C111.71 83.0781 114.1 86.6315 117.047 86.6315Z" fill="black"/>
<path d="M117.047 77.4102C119.994 77.4102 122.384 73.8564 122.384 69.4726C122.384 65.0888 119.994 61.5351 117.047 61.5351C114.1 61.5351 111.71 65.0888 111.71 69.4726C111.71 73.8564 114.1 77.4102 117.047 77.4102Z" fill="black"/>
<path d="M117.047 68.1885C119.994 68.1885 122.384 64.6348 122.384 60.251C122.384 55.8672 119.994 52.3134 117.047 52.3134C114.1 52.3134 111.71 55.8672 111.71 60.251C111.71 64.6348 114.1 68.1885 117.047 68.1885Z" fill="black"/>
<path d="M117.047 125.625L111.825 142.233H116.929H117.166H122.27L117.047 125.625Z" fill="black"/>
<path d="M127.96 167.431V167.44H34.0447V167.431C34.0447 162.323 34.9212 157.402 36.5503 152.824C36.8421 151.996 37.1607 151.178 37.506 150.367V150.359C37.8427 149.549 38.2146 148.756 38.6038 147.971C39.5862 145.976 40.7288 144.057 42.0031 142.232C42.729 141.191 43.5082 140.169 44.3227 139.188C44.8893 138.513 45.4644 137.857 46.0577 137.227C46.3496 136.902 46.6595 136.587 46.9695 136.271C47.2795 135.964 47.5894 135.658 47.908 135.351C47.9347 135.326 47.97 135.292 47.9967 135.274C49.5552 133.773 51.2273 132.4 52.9803 131.139C53.8749 130.499 54.7773 129.902 55.7158 129.322C55.8312 129.244 55.9543 129.176 56.0783 129.108C56.8928 128.606 57.7254 128.136 58.5744 127.693C58.583 127.684 58.5925 127.684 58.6011 127.684C58.6097 127.684 58.6097 127.684 58.6097 127.684L58.6183 127.675C58.9283 127.522 59.2296 127.351 59.5301 127.163C59.6007 127.129 59.6627 127.095 59.7342 127.053C59.9822 126.908 60.2301 126.755 60.4773 126.601C60.5573 126.549 60.6366 126.498 60.7158 126.456C60.9284 126.319 61.1411 126.183 61.3538 126.029C61.619 125.859 61.885 125.67 62.1416 125.484C62.1416 125.475 62.1416 125.475 62.1502 125.484C62.4068 125.304 62.6634 125.117 62.9114 124.921L62.92 124.912C64.3984 123.778 65.7708 122.507 67.0012 121.117C68.1085 119.872 69.1082 118.533 69.9761 117.109C70.9413 115.557 71.7558 113.912 72.393 112.188C72.7116 111.318 72.9948 110.432 73.2247 109.519C73.4021 108.88 73.5433 108.231 73.6673 107.574C73.9687 105.937 74.1279 104.249 74.1279 102.526L80.9705 102.56H81.0058L82.2 102.569L88.0077 102.594C88.0077 104.283 88.1583 105.937 88.4502 107.549C88.5656 108.215 88.7163 108.871 88.8936 109.519C89.1149 110.414 89.3887 111.293 89.6996 112.145C90.3367 113.885 91.1426 115.548 92.107 117.108C92.8948 118.405 93.7894 119.624 94.7805 120.775C96.0729 122.302 97.5332 123.683 99.1364 124.92C99.3671 125.106 99.5962 125.286 99.8355 125.448C99.907 125.508 99.9871 125.559 100.066 125.61C100.072 125.614 100.079 125.621 100.085 125.625C100.214 125.718 100.344 125.817 100.474 125.899C100.685 126.036 100.889 126.181 101.101 126.317C101.172 126.368 101.234 126.411 101.304 126.454C101.465 126.556 101.623 126.658 101.783 126.761C101.951 126.863 102.11 126.957 102.278 127.051C102.464 127.153 102.642 127.265 102.828 127.367C103.004 127.478 103.191 127.58 103.377 127.674C103.438 127.691 103.483 127.725 103.535 127.751L103.828 127.904C103.889 127.939 103.952 127.973 104.005 128.007C104.243 128.135 104.474 128.263 104.705 128.391C105.085 128.604 105.474 128.826 105.846 129.056C106.21 129.269 106.572 129.491 106.926 129.738C107.661 130.19 108.379 130.685 109.078 131.196C109.078 131.205 109.086 131.205 109.086 131.205H109.096C109.99 131.844 110.858 132.527 111.707 133.226C112.504 133.883 113.266 134.564 114.009 135.281C114.062 135.324 114.106 135.367 114.16 135.418C116.328 137.498 118.285 139.775 119.993 142.232C125.03 149.429 127.96 158.093 127.96 167.431Z" fill="#DFB28B"/>
<path d="M127.96 167.431H34.0447C34.0447 162.323 34.9212 157.402 36.5503 152.824C36.8421 151.996 37.1607 151.178 37.506 150.367V150.359C37.8427 149.549 38.2146 148.756 38.6038 147.971C39.5862 145.976 40.7288 144.057 42.0031 142.232C42.729 141.191 43.5082 140.169 44.3227 139.187C44.8893 138.513 45.4644 137.857 46.0577 137.227C46.3496 136.902 46.6595 136.587 46.9695 136.271C47.2795 135.964 47.5894 135.657 47.908 135.351C47.9347 135.326 47.97 135.292 47.9967 135.274C49.5552 133.773 51.2273 132.4 52.9803 131.139C53.8749 130.499 54.7773 129.902 55.7158 129.321C55.8312 129.244 55.9543 129.176 56.0783 129.108C56.8928 128.606 57.7254 128.136 58.5744 127.692C58.5744 127.684 58.583 127.684 58.583 127.684C58.5916 127.675 58.5916 127.675 58.6011 127.684C58.6097 127.684 58.6097 127.684 58.6097 127.684V127.675H58.6183C58.9283 127.505 59.2296 127.334 59.5301 127.163C59.6007 127.129 59.6627 127.095 59.7342 127.053C59.9822 126.908 60.2301 126.754 60.4773 126.601C60.7158 126.447 60.9551 126.285 61.1945 126.132C61.2918 126.064 61.3899 125.996 61.4872 125.927C61.7085 125.782 61.9298 125.629 62.1425 125.475C62.1606 125.458 62.1864 125.441 62.2045 125.432C62.4344 125.262 62.6651 125.083 62.895 124.903L62.9045 124.895C62.9131 124.903 62.9131 124.903 62.9217 124.911C63.4271 125.407 63.9403 125.884 64.4888 126.336C64.7548 126.558 65.0286 126.77 65.3033 126.983C65.3119 127 65.3119 127 65.3214 126.992C65.578 127.188 65.8259 127.376 66.0825 127.563C66.1445 127.606 66.197 127.649 66.2599 127.683C66.5251 127.863 66.7912 128.042 67.0563 128.212C67.6582 128.596 68.2781 128.954 68.9058 129.287C69.2253 129.457 69.5438 129.619 69.871 129.773C70.1982 129.934 70.5349 130.08 70.8802 130.216C70.9241 130.25 70.9688 130.267 71.0128 130.275C71.7739 130.591 72.5531 130.872 73.3496 131.12C73.6509 131.213 73.9514 131.3 74.2614 131.376C74.5352 131.445 74.8099 131.513 75.0845 131.581C75.1465 131.607 75.2085 131.615 75.2791 131.624C76.1729 131.82 77.0933 131.973 78.0327 132.084C78.3513 132.118 78.6698 132.153 78.9979 132.178C79.6531 132.229 80.3075 132.255 80.9722 132.255H81.0428C81.2374 132.255 81.432 132.255 81.6266 132.246C81.7239 132.255 81.8221 132.255 81.9193 132.238C82.0158 132.238 82.1053 132.229 82.2018 132.221C82.6176 132.204 83.0258 132.178 83.433 132.144C83.7869 132.11 84.1408 132.067 84.4869 132.024C84.5842 132.024 84.6729 132.015 84.7607 131.99C85.0345 131.956 85.3006 131.905 85.5667 131.863C85.6734 131.854 85.7793 131.837 85.8852 131.803C86.0807 131.769 86.2744 131.726 86.4604 131.692C86.6558 131.658 86.841 131.615 87.0269 131.564C87.417 131.47 87.8062 131.376 88.1867 131.266C88.5673 131.155 88.9488 131.044 89.3199 130.916C89.7185 130.797 90.0982 130.653 90.4797 130.498C90.6656 130.43 90.8516 130.362 91.029 130.285C91.9408 129.91 92.8173 129.483 93.6672 128.997C93.9685 128.835 94.2604 128.665 94.5523 128.495C94.7469 128.374 94.9329 128.256 95.1189 128.128C95.2781 128.026 95.4374 127.924 95.5881 127.821C95.9067 127.608 96.2167 127.386 96.5266 127.156C96.8357 126.926 97.1371 126.687 97.4298 126.448C98.0222 125.971 98.5896 125.459 99.1295 124.93L99.1476 124.912C99.4489 125.151 99.7589 125.381 100.068 125.611C100.074 125.616 100.081 125.622 100.087 125.626C100.125 125.654 100.163 125.679 100.201 125.707C100.218 125.718 100.235 125.725 100.254 125.739C100.529 125.935 100.811 126.132 101.104 126.319C101.174 126.37 101.236 126.413 101.307 126.456C101.626 126.66 101.954 126.856 102.281 127.053C102.644 127.266 103.016 127.471 103.387 127.667C103.449 127.683 103.494 127.717 103.547 127.743C103.644 127.795 103.742 127.854 103.831 127.905C103.892 127.94 103.955 127.974 104.007 128.008C104.246 128.135 104.476 128.264 104.707 128.392C105.088 128.605 105.477 128.826 105.849 129.057C106.212 129.27 106.575 129.492 106.929 129.739C107.664 130.191 108.381 130.686 109.08 131.197H109.098C109.992 131.845 110.87 132.519 111.71 133.226C112.506 133.883 113.268 134.565 114.011 135.282C114.065 135.325 114.109 135.368 114.162 135.419C116.331 137.499 118.287 139.775 119.996 142.232C125.03 149.429 127.96 158.093 127.96 167.431Z" fill="#589BFF"/>
<path d="M81.0782 132.264L81.0515 132.307L81.0429 132.323C81.0248 132.341 81.0162 132.366 80.999 132.383C78.5029 136.075 74.3855 138.002 70.2431 138.002C66.8524 138.002 63.4444 136.714 60.8863 134.071L56.0792 129.108C56.8938 128.606 57.7264 128.136 58.5753 127.693C58.5839 127.684 58.5934 127.684 58.602 127.684C58.6106 127.684 58.6106 127.684 58.6106 127.684V127.675H58.6192C58.9292 127.505 59.2306 127.334 59.5311 127.164C59.6017 127.13 59.6637 127.095 59.7351 127.053C59.9831 126.908 60.2311 126.755 60.4782 126.601C60.5583 126.549 60.6375 126.498 60.7167 126.456C60.8769 126.345 61.0361 126.242 61.1946 126.132C61.248 126.097 61.3013 126.063 61.3547 126.029C61.6199 125.85 61.886 125.671 62.1426 125.484C62.1426 125.475 62.1426 125.475 62.1512 125.484C62.1693 125.458 62.1865 125.449 62.2046 125.432C62.4344 125.262 62.6652 125.082 62.8951 124.903C62.9046 124.912 62.9046 124.912 62.9132 124.92C63.4177 125.414 63.9395 125.892 64.4889 126.335C64.7549 126.565 65.0287 126.787 65.3034 126.983C65.312 126.999 65.312 126.999 65.3215 126.992C65.5686 127.197 65.826 127.384 66.0826 127.562C66.1446 127.606 66.1971 127.649 66.26 127.683C66.5166 127.87 66.7818 128.048 67.0564 128.211C67.6497 128.604 68.2687 128.962 68.9059 129.286C69.2253 129.457 69.5439 129.619 69.8711 129.772C70.2078 129.934 70.5436 130.079 70.8802 130.216C70.9241 130.25 70.9689 130.266 71.0128 130.275C71.774 130.599 72.5532 130.872 73.3497 131.12C73.651 131.213 73.9515 131.299 74.2615 131.375C74.5353 131.452 74.81 131.52 75.0846 131.58C75.1466 131.606 75.2086 131.614 75.2792 131.623C76.173 131.836 77.0934 131.989 78.0328 132.084C78.3513 132.127 78.6699 132.161 78.998 132.177C79.6437 132.237 80.299 132.263 80.9628 132.263H81.0782V132.264Z" fill="#E7ECF2"/>
<path d="M106.017 129.172L101.28 134.066C98.7214 136.71 95.3135 137.998 91.9142 137.998C87.7537 137.998 83.6105 136.053 81.123 132.318L81.1143 132.3L81.079 132.257C88.1429 132.249 94.5351 129.436 99.1296 124.924L99.1382 124.915C99.7667 125.419 100.422 125.887 101.094 126.322C101.165 126.373 101.227 126.416 101.298 126.458C101.616 126.663 101.944 126.859 102.271 127.055C102.635 127.268 103.007 127.473 103.378 127.669C103.44 127.686 103.485 127.72 103.538 127.746C104.316 128.164 105.087 128.599 105.84 129.059C105.902 129.095 105.955 129.129 106.017 129.172Z" fill="#E7ECF2"/>
<path d="M106.088 29.1309C106.088 34.9211 104.884 40.4301 102.697 45.453C98.5096 55.0552 90.7372 62.8576 80.9998 67.3008C75.3162 69.8935 68.9687 71.3434 62.2674 71.3434C58.1155 71.3434 54.0963 70.7885 50.2897 69.7484C48.652 69.2964 47.0591 68.7597 45.5093 68.1443C45.5007 68.136 45.5007 68.1443 45.5007 68.1443C45.3147 68.068 45.1382 67.9909 44.9608 67.9146C44.8101 67.8557 44.6689 67.7951 44.5269 67.7354C43.5711 66.1927 42.7127 64.5803 41.9601 62.909C41.1723 61.144 40.5076 59.3019 39.9772 57.4091C39.0301 54.0234 38.5255 50.442 38.5255 46.7668C38.5255 24.1776 57.5404 5.85988 80.9998 5.85988C88.613 5.85988 95.7569 7.78745 101.936 11.1723C102.201 11.7098 102.449 12.2555 102.697 12.8104C103.511 14.6691 104.175 16.5884 104.706 18.5658C105.61 21.9423 106.088 25.4806 106.088 29.1309Z" fill="#141720"/>
<path d="M123.463 46.7669C123.463 53.1369 121.95 59.1651 119.258 64.5381C111.928 59.9506 106.112 53.3077 102.696 45.4531C100.5 40.4302 99.2963 34.922 99.2963 29.131C99.2963 23.3416 100.5 17.8326 102.696 12.8097C102.837 12.4854 102.979 12.1702 103.13 11.8459C115.319 19.0345 123.463 31.9875 123.463 46.7669Z" fill="#FFB600"/>
<path d="M117.046 44.7109V70.7538C117.046 71.0947 117.037 71.4282 117.028 71.7691C117.02 72.0759 117.01 72.3737 116.993 72.6814C116.984 72.9543 116.966 73.2272 116.94 73.5C116.93 73.6958 116.913 73.8924 116.895 74.0889C116.886 74.2084 116.878 74.3187 116.86 74.4381C116.842 74.6513 116.824 74.8736 116.789 75.0859C116.754 75.4956 116.7 75.8971 116.638 76.306C116.629 76.408 116.612 76.5108 116.594 76.6129C116.568 76.8177 116.532 77.0218 116.496 77.2266V77.2523C116.488 77.2946 116.478 77.3287 116.478 77.3718C116.426 77.6281 116.381 77.8835 116.337 78.139C116.257 78.5487 116.177 78.9576 116.089 79.3591C116.08 79.3765 116.08 79.3931 116.072 79.4105C116.062 79.4702 116.054 79.5308 116.037 79.5897C116.027 79.6071 116.027 79.6237 116.018 79.6411C115.983 79.8202 115.938 80.0002 115.894 80.1702C115.885 80.2134 115.876 80.2474 115.868 80.2905C115.851 80.3834 115.833 80.478 115.797 80.5717C115.771 80.7251 115.726 80.8786 115.69 81.0328C115.665 81.1183 115.647 81.2112 115.61 81.2966C115.593 81.3737 115.566 81.45 115.549 81.5189C115.363 82.2181 115.151 82.8999 114.929 83.5816C114.823 83.9059 114.717 84.2211 114.601 84.5454C114.593 84.5794 114.575 84.6134 114.566 84.6475C114.469 84.9203 114.363 85.2023 114.265 85.4752C114.256 85.4926 114.256 85.5001 114.247 85.5175C114.212 85.6038 114.177 85.6884 114.141 85.7821C114.035 86.0541 113.929 86.3279 113.813 86.5999C113.681 86.9325 113.54 87.2568 113.398 87.5811C113.274 87.8714 113.141 88.1609 113.008 88.4512C112.99 88.5026 112.964 88.5449 112.947 88.5963C112.797 88.9032 112.654 89.2101 112.504 89.5087C112.353 89.8247 112.195 90.1407 112.026 90.4559C112.016 90.4733 112.009 90.4816 111.999 90.499C111.69 91.1037 111.353 91.7183 111.016 92.3071L110.538 93.1249C109.175 95.3851 107.661 97.5084 106.014 99.4692C105.793 99.7512 105.563 100.024 105.324 100.288C104.996 100.672 104.659 101.047 104.323 101.413C104.04 101.72 103.748 102.035 103.447 102.334C103.437 102.351 103.429 102.359 103.411 102.376C102.562 103.255 101.694 104.09 100.809 104.875C100.632 105.046 100.446 105.2 100.26 105.361C99.9587 105.625 99.6582 105.881 99.3474 106.129C99.1088 106.333 98.8609 106.529 98.6138 106.727C97.9766 107.229 97.3386 107.715 96.6928 108.167C96.4268 108.363 96.1529 108.551 95.8783 108.73C95.4357 109.037 94.9845 109.328 94.5325 109.609C94.2845 109.771 94.0279 109.925 93.7714 110.07C93.7266 110.095 93.6913 110.121 93.6465 110.138C92.7881 110.65 91.9115 111.118 91.0531 111.528C90.831 111.639 90.6097 111.741 90.3893 111.844C90.168 111.946 89.9372 112.048 89.6987 112.15C89.406 112.278 89.1141 112.398 88.8213 112.509C88.7068 112.561 88.5914 112.602 88.4769 112.637C88.1316 112.773 87.7778 112.901 87.4325 113.012C86.9985 113.165 86.5551 113.293 86.122 113.413C85.8215 113.497 85.5115 113.574 85.2102 113.642C85.1921 113.651 85.1749 113.66 85.1482 113.66C84.8468 113.728 84.5463 113.796 84.2458 113.848C84.1658 113.865 84.0857 113.882 84.0065 113.89C83.7585 113.933 83.5114 113.977 83.2634 114.001C82.9095 114.052 82.5557 114.095 82.2009 114.113C82.0778 114.13 81.9624 114.138 81.8384 114.138C81.5551 114.156 81.2805 114.163 81.0067 114.163H80.9714C80.6976 114.163 80.4229 114.155 80.1482 114.138C80.0415 114.138 79.9356 114.129 79.8297 114.113C79.5817 114.103 79.3251 114.079 79.059 114.045C79.0057 114.045 78.9437 114.035 78.8911 114.028C78.5639 113.985 78.2359 113.934 77.9001 113.874C77.6168 113.831 77.3335 113.772 77.0417 113.704C75.528 113.371 73.9704 112.868 72.3947 112.194C71.0489 111.623 69.6859 110.933 68.3315 110.131C68.2515 110.088 68.1809 110.038 68.1008 109.995C67.4989 109.636 66.8885 109.252 66.2952 108.852C65.9586 108.622 65.6228 108.391 65.2861 108.152C64.2322 107.41 63.1878 106.601 62.1614 105.73C61.8782 105.483 61.5949 105.235 61.3116 104.98C61.0283 104.733 60.7451 104.477 60.4712 104.23C59.816 103.625 59.1789 103.003 58.5675 102.346C58.5228 102.312 58.4883 102.268 58.4521 102.234C58.1956 101.971 57.939 101.698 57.6815 101.417C56.9738 100.649 56.2832 99.8557 55.628 99.0287C55.3714 98.7302 55.132 98.4233 54.8935 98.1156C53.9989 96.9726 53.1491 95.7791 52.3526 94.5424C52.14 94.2107 51.9273 93.8681 51.7241 93.5363C51.4761 93.1357 51.2376 92.7268 50.9983 92.3163C50.653 91.7191 50.3258 91.1144 50.0072 90.5007C49.4932 89.5369 49.0239 88.5482 48.5908 87.5413C48.4841 87.3032 48.3782 87.0644 48.2895 86.8255C48.1483 86.5186 48.0234 86.2034 47.9089 85.8966C47.8555 85.7506 47.7944 85.6063 47.7496 85.4619C47.6256 85.1542 47.5111 84.8482 47.4043 84.5405C47.2451 84.0892 47.0944 83.6281 46.9437 83.1686C46.8016 82.7249 46.669 82.2811 46.545 81.8299C46.4038 81.3522 46.2712 80.8661 46.1559 80.371C46.1472 80.3195 46.1292 80.2689 46.1206 80.2183C46.1206 80.2009 46.1119 80.1926 46.1119 80.1752C45.944 79.51 45.802 78.8282 45.6694 78.1456C45.616 77.8902 45.5721 77.6347 45.5368 77.3693C45.4128 76.7041 45.325 76.0223 45.2449 75.3405C45.201 75.0419 45.1743 74.7433 45.1476 74.4448C45.1123 74.1296 45.0856 73.8227 45.0675 73.5067C45.0236 72.936 44.9969 72.3554 44.9788 71.7757C44.9694 71.4348 44.9608 71.1014 44.9608 70.7605V44.7109C44.9608 26.1808 60.0364 11.0356 79.0255 10.047C79.0608 10.0379 79.0874 10.0379 79.1227 10.0379C79.3707 10.0296 79.6187 10.0204 79.8667 10.0121C80.2386 10.0038 80.602 9.99472 80.9731 9.99472H81.0084C81.389 9.99472 81.7695 10.0038 82.1501 10.0121H82.2302C82.4962 10.0213 82.7614 10.0296 83.0275 10.047H83.0533C83.1782 10.0553 83.3013 10.0644 83.4253 10.0719C83.6913 10.0893 83.9565 10.1059 84.2131 10.1316C84.3457 10.1399 84.4706 10.149 84.6032 10.1656C84.6919 10.1739 84.7711 10.183 84.8598 10.1905C86.2675 10.3364 87.6478 10.5571 88.9944 10.8474C91.3407 11.3591 93.5974 12.0923 95.7397 13.0221C97.7398 13.883 99.6435 14.9148 101.423 16.1001C102.256 16.6458 103.052 17.2256 103.822 17.8402C104.123 18.0791 104.414 18.3179 104.707 18.5568V18.5651C106.415 19.9983 107.983 21.5759 109.372 23.2978C114.117 29.1228 116.977 36.4391 117.039 44.4032C117.046 44.5069 117.046 44.6089 117.046 44.7109Z" fill="#DFB28B"/>
<path d="M123.466 46.7671C123.466 50.4339 122.961 53.9897 122.014 57.3745C121.501 59.2764 120.829 61.1185 120.031 62.8918C119.793 63.4459 119.535 64.0008 119.261 64.5374C118.508 64.0688 117.765 63.5736 117.048 63.0453C116.517 62.6787 115.994 62.2864 115.482 61.8857C114.198 60.8797 112.976 59.8047 111.816 58.6709C107.965 54.8846 104.858 50.4074 102.698 45.4524C98.5109 55.0546 90.7384 62.857 81.0011 67.3002C75.3175 69.893 68.97 71.3428 62.2687 71.3428C58.1168 71.3428 54.0976 70.7879 50.291 69.7478C48.6533 69.2958 47.0604 68.7591 45.5106 68.1437C45.502 68.1354 45.502 68.1437 45.502 68.1437C45.316 68.0674 45.1395 67.9903 44.9621 67.914C44.8114 67.8551 44.6702 67.7945 44.5281 67.7348C43.5724 66.1921 42.714 64.5797 41.9614 62.9084C41.1736 61.1434 40.5089 59.3013 39.9785 57.4085C39.0314 54.0228 38.5268 50.4414 38.5268 46.7663C38.5268 24.177 57.5417 5.85928 81.0011 5.85928C88.6143 5.85928 95.7582 7.78685 101.937 11.1717C102.335 11.3849 102.733 11.6155 103.132 11.846C115.322 19.0346 123.466 31.9877 123.466 46.7671Z" fill="black"/>
</svg>
