<svg width="162" height="168" viewBox="0 0 162 167" fill="none" xmlns="http://www.w3.org/2000/svg">
<path d="M80.9631 155.982C125.678 155.982 161.926 121.065 161.926 77.9912C161.926 34.9179 125.678 0 80.9631 0C36.2484 0 0 34.9179 0 77.9912C0 121.065 36.2484 155.982 80.9631 155.982Z" fill="#32880A"/>
<path d="M50.2746 123.821C50.2746 127.12 48.9208 129.958 46.9827 131.152C46.3544 131.545 45.6642 131.757 44.9387 131.757C44.2132 131.757 43.523 131.544 42.8947 131.152C40.9566 129.959 39.6028 127.121 39.6028 123.821C39.6028 122.109 39.9651 120.514 40.6028 119.219C41.5581 117.198 43.1426 115.886 44.9387 115.886C46.7348 115.886 48.3184 117.198 49.2746 119.219C49.9123 120.514 50.2746 122.108 50.2746 123.821Z" fill="#FFB600"/>
<path d="M50.2746 114.606C50.2746 116.328 49.9123 117.923 49.2746 119.218C48.3098 121.231 46.7262 122.535 44.9387 122.535C43.1512 122.535 41.5676 121.231 40.6028 119.218C39.966 117.923 39.6028 116.329 39.6028 114.606C39.6028 112.885 39.9651 111.291 40.6028 109.995C41.5676 107.983 43.1512 106.671 44.9387 106.671C46.7262 106.671 48.3098 107.983 49.2746 109.995C49.9123 111.291 50.2746 112.885 50.2746 114.606Z" fill="#FFB600"/>
<path d="M50.2746 105.384C50.2746 107.106 49.9123 108.7 49.2746 109.995C48.3098 112.007 46.7262 113.32 44.9387 113.32C43.1512 113.32 41.5676 112.007 40.6028 109.995C39.966 108.7 39.6028 107.106 39.6028 105.384C39.6028 103.671 39.9651 102.077 40.6028 100.781C41.5581 98.761 43.1426 97.4478 44.9387 97.4478C46.7348 97.4478 48.3184 98.761 49.2746 100.781C49.9123 102.077 50.2746 103.671 50.2746 105.384Z" fill="#FFB600"/>
<path d="M50.2746 96.1703C50.2746 97.8922 49.9123 99.4856 49.2746 100.782C48.3098 102.793 46.7262 104.107 44.9387 104.107C43.1512 104.107 41.5676 102.793 40.6028 100.782C39.966 99.4865 39.6028 97.893 39.6028 96.1703C39.6028 94.4575 39.9651 92.8632 40.6028 91.5674C41.5581 89.5471 43.1426 88.2339 44.9387 88.2339C46.7348 88.2339 48.3184 89.5471 49.2746 91.5674C49.9123 92.8632 50.2746 94.4575 50.2746 96.1703Z" fill="#FFB600"/>
<path d="M50.2746 86.948C50.2746 87.8517 50.1774 88.7205 49.9829 89.5305C49.815 90.2634 49.5758 90.954 49.2746 91.5675C48.3098 93.5787 46.7262 94.8828 44.9387 94.8828C43.1512 94.8828 41.5676 93.5787 40.6028 91.5675C39.966 90.2717 39.6028 88.6783 39.6028 86.948C39.6028 85.2352 39.9651 83.641 40.6028 82.3444C41.5581 80.3331 43.1426 79.0199 44.9387 79.0199C45.3363 79.0199 45.7167 79.0887 46.0885 79.2081C47.407 79.6342 48.5301 80.7767 49.2737 82.3444C49.9123 83.641 50.2746 85.2352 50.2746 86.948Z" fill="#FFB600"/>
<path d="M50.2742 77.734C50.2742 79.4551 49.9119 81.0494 49.2742 82.3452C48.8671 83.2065 48.3361 83.9394 47.7259 84.4941C46.9118 85.2435 45.9565 85.6696 44.9392 85.6696C43.1517 85.6696 41.5681 84.3573 40.6033 82.3452C39.9665 81.0494 39.6033 79.456 39.6033 77.734C39.6033 76.0213 39.9656 74.427 40.6033 73.1312C41.5586 71.11 43.1431 69.7976 44.9392 69.7976C46.7353 69.7976 48.3189 71.11 49.2751 73.1312C49.9119 74.4262 50.2742 76.0204 50.2742 77.734Z" fill="#FFB600"/>
<path d="M50.2742 68.5193C50.2742 68.613 50.2742 68.7075 50.2656 68.792C50.2304 70.4112 49.8766 71.9034 49.2751 73.1304C48.417 74.9195 47.0718 76.1556 45.5141 76.4026C45.3282 76.4366 45.1337 76.4549 44.9392 76.4549C43.1517 76.4549 41.5681 75.1417 40.6033 73.1304C39.9665 71.8346 39.6033 70.2412 39.6033 68.5185C39.6033 66.7965 39.9656 65.2023 40.6033 63.9065C40.9657 63.1479 41.4175 62.483 41.9399 61.9549C42.7979 61.0853 43.8333 60.5829 44.9392 60.5829C46.7267 60.5829 48.3103 61.8961 49.2751 63.9073C49.9119 65.2031 50.2742 66.7974 50.2742 68.5193Z" fill="#FFB600"/>
<path d="M50.2748 59.2963C50.2748 61.0182 49.9124 62.6124 49.2747 63.9082C48.4167 65.7072 47.0534 66.9516 45.4879 67.1896C45.4793 67.1813 45.4793 67.1896 45.4793 67.1896C45.3029 67.2153 45.1256 67.2327 44.9397 67.2327C43.1522 67.2327 41.5686 65.9203 40.6038 63.9082C39.967 62.6124 39.6038 61.019 39.6038 59.2963C39.6038 58.2998 39.7277 57.3364 39.9575 56.4585C40.7269 53.483 42.6651 51.369 44.9397 51.369C47.8857 51.3698 50.2748 54.9156 50.2748 59.2963Z" fill="#FFB600"/>
<path d="M50.1601 141.244H39.718L42.8955 131.151L44.9395 124.648L46.9826 131.151L47.9741 134.288L50.1601 141.244Z" fill="#FFB600"/>
<path d="M116.994 131.755C119.94 131.755 122.328 128.202 122.328 123.821C122.328 119.439 119.94 115.887 116.994 115.887C114.048 115.887 111.659 119.439 111.659 123.821C111.659 128.202 114.048 131.755 116.994 131.755Z" fill="#FFB600"/>
<path d="M116.994 122.536C119.94 122.536 122.328 118.984 122.328 114.603C122.328 110.221 119.94 106.669 116.994 106.669C114.048 106.669 111.659 110.221 111.659 114.603C111.659 118.984 114.048 122.536 116.994 122.536Z" fill="#FFB600"/>
<path d="M116.994 113.319C119.94 113.319 122.328 109.767 122.328 105.386C122.328 101.005 119.94 97.453 116.994 97.453C114.048 97.453 111.659 101.005 111.659 105.386C111.659 109.767 114.048 113.319 116.994 113.319Z" fill="#FFB600"/>
<path d="M116.994 104.103C119.94 104.103 122.328 100.551 122.328 96.1689C122.328 91.7871 119.94 88.2349 116.994 88.2349C114.048 88.2349 111.659 91.7871 111.659 96.1689C111.659 100.551 114.048 104.103 116.994 104.103Z" fill="#FFB600"/>
<path d="M116.994 94.8855C119.94 94.8855 122.328 91.3334 122.328 86.9516C122.328 82.5698 119.94 79.0176 116.994 79.0176C114.048 79.0176 111.659 82.5698 111.659 86.9516C111.659 91.3334 114.048 94.8855 116.994 94.8855Z" fill="#FFB600"/>
<path d="M116.994 85.6682C119.94 85.6682 122.328 82.1164 122.328 77.7351C122.328 73.3538 119.94 69.802 116.994 69.802C114.048 69.802 111.659 73.3538 111.659 77.7351C111.659 82.1164 114.048 85.6682 116.994 85.6682Z" fill="#FFB600"/>
<path d="M116.994 76.4511C119.94 76.4511 122.328 72.8989 122.328 68.5172C122.328 64.1354 119.94 60.5832 116.994 60.5832C114.048 60.5832 111.659 64.1354 111.659 68.5172C111.659 72.8989 114.048 76.4511 116.994 76.4511Z" fill="#FFB600"/>
<path d="M116.994 67.2336C119.94 67.2336 122.328 63.6815 122.328 59.2997C122.328 54.9179 119.94 51.3658 116.994 51.3658C114.048 51.3658 111.659 54.9179 111.659 59.2997C111.659 63.6815 114.048 67.2336 116.994 67.2336Z" fill="#FFB600"/>
<path d="M116.993 124.644L111.774 141.245H116.876H117.112H122.214L116.993 124.644Z" fill="#FFB600"/>
<path d="M127.902 166.431V166.44H34.0292V166.431C34.0292 161.326 34.9053 156.407 36.5336 151.831C36.8254 151.003 37.1438 150.186 37.4889 149.375V149.367C37.8255 148.557 38.1972 147.764 38.5862 146.98C39.5682 144.986 40.7103 143.068 41.984 141.244C42.7095 140.203 43.4884 139.181 44.3026 138.2C44.8689 137.526 45.4438 136.871 46.0367 136.24C46.3285 135.916 46.6383 135.601 46.9481 135.285C47.258 134.979 47.5678 134.672 47.8862 134.366C47.9129 134.34 47.9482 134.306 47.9749 134.289C49.5326 132.788 51.204 131.416 52.9562 130.155C53.8504 129.516 54.7524 128.919 55.6904 128.339C55.8058 128.262 55.9288 128.194 56.0528 128.126C56.8669 127.623 57.6992 127.154 58.5477 126.711C58.5564 126.702 58.5658 126.702 58.5744 126.702C58.583 126.702 58.583 126.702 58.583 126.702L58.5916 126.693C58.9015 126.54 59.2027 126.369 59.503 126.182C59.5736 126.148 59.6356 126.114 59.707 126.071C59.9549 125.926 60.2027 125.773 60.4497 125.62C60.5298 125.567 60.609 125.517 60.6881 125.475C60.9007 125.338 61.1133 125.202 61.3259 125.048C61.5909 124.878 61.8569 124.689 62.1133 124.503C62.1133 124.494 62.1133 124.494 62.122 124.503C62.3784 124.323 62.6349 124.136 62.8828 123.94L62.8914 123.931C64.3691 122.798 65.7409 121.527 66.9708 120.138C68.0775 118.894 69.0767 117.556 69.9442 116.132C70.909 114.581 71.7232 112.936 72.36 111.213C72.6785 110.344 72.9616 109.457 73.1914 108.545C73.3687 107.906 73.5098 107.258 73.6338 106.601C73.935 104.965 74.0942 103.278 74.0942 101.556L80.9336 101.59H80.9689L82.1626 101.599L87.9676 101.624C87.9676 103.312 88.1182 104.965 88.41 106.577C88.5253 107.241 88.6759 107.898 88.8532 108.545C89.0744 109.44 89.348 110.319 89.6587 111.17C90.2956 112.91 91.1012 114.572 92.0651 116.131C92.8525 117.427 93.7467 118.646 94.7373 119.796C96.0291 121.323 97.4888 122.703 99.0913 123.939C99.3219 124.126 99.5508 124.305 99.7901 124.467C99.8615 124.527 99.9416 124.578 100.021 124.629C100.027 124.633 100.034 124.64 100.04 124.644C100.169 124.737 100.299 124.836 100.428 124.918C100.64 125.055 100.843 125.2 101.055 125.336C101.126 125.387 101.188 125.43 101.258 125.473C101.418 125.575 101.577 125.677 101.737 125.78C101.905 125.882 102.064 125.975 102.232 126.07C102.418 126.172 102.595 126.283 102.781 126.385C102.957 126.496 103.144 126.598 103.33 126.692C103.391 126.709 103.436 126.743 103.488 126.769L103.781 126.922C103.842 126.957 103.905 126.991 103.957 127.025C104.196 127.152 104.426 127.281 104.657 127.409C105.037 127.622 105.426 127.843 105.798 128.074C106.161 128.287 106.524 128.508 106.877 128.755C107.612 129.207 108.329 129.702 109.028 130.212C109.028 130.222 109.037 130.222 109.037 130.222H109.046C109.94 130.86 110.807 131.543 111.656 132.241C112.453 132.898 113.214 133.579 113.957 134.296C114.01 134.339 114.054 134.382 114.108 134.432C116.275 136.512 118.231 138.787 119.938 141.243C124.973 148.437 127.902 157.097 127.902 166.431Z" fill="#DFB28B"/>
<path d="M127.902 166.431H34.0292C34.0292 161.325 34.9053 156.407 36.5336 151.83C36.8254 151.003 37.1438 150.186 37.4889 149.375V149.367C37.8255 148.557 38.1972 147.764 38.5862 146.98C39.5682 144.986 40.7103 143.067 41.984 141.244C42.7095 140.203 43.4884 139.181 44.3026 138.2C44.8689 137.526 45.4438 136.87 46.0367 136.24C46.3285 135.916 46.6383 135.601 46.9481 135.285C47.258 134.979 47.5678 134.672 47.8862 134.366C47.9129 134.34 47.9482 134.306 47.9749 134.289C49.5326 132.788 51.204 131.416 52.9562 130.155C53.8504 129.516 54.7524 128.919 55.6904 128.339C55.8058 128.262 55.9288 128.194 56.0528 128.126C56.8669 127.623 57.6992 127.154 58.5477 126.711C58.5477 126.702 58.5564 126.702 58.5564 126.702C58.565 126.693 58.565 126.693 58.5744 126.702C58.583 126.702 58.583 126.702 58.583 126.702V126.693H58.5916C58.9015 126.523 59.2027 126.352 59.503 126.182C59.5736 126.148 59.6356 126.114 59.707 126.071C59.9549 125.926 60.2027 125.773 60.4497 125.619C60.6881 125.465 60.9274 125.304 61.1666 125.151C61.2639 125.082 61.362 125.014 61.4593 124.946C61.6805 124.801 61.9016 124.648 62.1142 124.494C62.1323 124.477 62.1581 124.46 62.1762 124.451C62.406 124.281 62.6366 124.102 62.8664 123.922L62.8759 123.914C62.8845 123.922 62.8845 123.922 62.8931 123.931C63.3983 124.426 63.9112 124.902 64.4594 125.354C64.7254 125.576 64.999 125.789 65.2736 126.002C65.2822 126.018 65.2822 126.018 65.2917 126.011C65.5481 126.206 65.796 126.395 66.0525 126.581C66.1144 126.624 66.1669 126.667 66.2298 126.701C66.4948 126.88 66.7608 127.06 67.0258 127.229C67.6274 127.613 68.2471 127.971 68.8745 128.304C69.1938 128.475 69.5122 128.636 69.8392 128.79C70.1663 128.951 70.5028 129.096 70.8479 129.233C70.8918 129.267 70.9365 129.284 70.9804 129.292C71.7412 129.608 72.5201 129.889 73.3162 130.137C73.6174 130.23 73.9178 130.316 74.2276 130.392C74.5013 130.461 74.7758 130.529 75.0504 130.597C75.1123 130.623 75.1743 130.631 75.2449 130.64C76.1382 130.836 77.0582 130.989 77.9972 131.1C78.3156 131.134 78.634 131.169 78.9619 131.194C79.6169 131.245 80.271 131.271 80.9354 131.271H81.0059C81.2004 131.271 81.3949 131.271 81.5894 131.262C81.6867 131.271 81.7848 131.271 81.8821 131.254C81.9785 131.254 82.068 131.245 82.1643 131.237C82.58 131.22 82.988 131.194 83.3951 131.16C83.7488 131.126 84.1025 131.083 84.4485 131.04C84.5457 131.04 84.6344 131.031 84.7221 131.006C84.9958 130.972 85.2618 130.921 85.5277 130.879C85.6344 130.87 85.7403 130.853 85.8461 130.819C86.0415 130.785 86.2351 130.742 86.421 130.708C86.6164 130.674 86.8014 130.631 86.9873 130.58C87.3772 130.487 87.7662 130.392 88.1466 130.282C88.527 130.172 88.9083 130.061 89.2792 129.933C89.6777 129.814 90.0572 129.669 90.4385 129.515C90.6244 129.447 90.8103 129.379 90.9875 129.302C91.899 128.927 92.7751 128.5 93.6245 128.015C93.9257 127.853 94.2175 127.682 94.5093 127.512C94.7038 127.392 94.8897 127.273 95.0756 127.146C95.2348 127.044 95.394 126.942 95.5446 126.839C95.863 126.626 96.1729 126.405 96.4827 126.174C96.7917 125.944 97.0929 125.706 97.3855 125.466C97.9776 124.989 98.5448 124.478 99.0844 123.949L99.1024 123.932C99.4037 124.17 99.7135 124.4 100.022 124.63C100.028 124.635 100.035 124.641 100.041 124.645C100.079 124.673 100.117 124.698 100.155 124.726C100.172 124.737 100.189 124.744 100.208 124.758C100.483 124.954 100.765 125.151 101.058 125.338C101.128 125.388 101.19 125.431 101.261 125.474C101.579 125.678 101.907 125.875 102.234 126.071C102.597 126.284 102.969 126.489 103.34 126.685C103.402 126.701 103.447 126.735 103.5 126.761C103.597 126.813 103.695 126.872 103.783 126.923C103.845 126.958 103.907 126.992 103.96 127.026C104.198 127.153 104.429 127.282 104.66 127.409C105.04 127.622 105.429 127.844 105.801 128.074C106.164 128.287 106.526 128.509 106.88 128.756C107.615 129.208 108.332 129.703 109.031 130.213H109.049C109.942 130.861 110.819 131.535 111.659 132.242C112.455 132.898 113.217 133.58 113.96 134.296C114.013 134.339 114.057 134.382 114.11 134.433C116.278 136.512 118.233 138.788 119.941 141.244C124.973 148.437 127.902 157.097 127.902 166.431Z" fill="#589BFF"/>
<path d="M81.0413 131.28L81.0147 131.323L81.006 131.339C80.988 131.357 80.9794 131.382 80.9622 131.399C78.4672 135.089 74.3516 137.016 70.2111 137.016C66.822 137.016 63.4156 135.728 60.8586 133.086L56.0537 128.126C56.8679 127.623 57.7001 127.154 58.5487 126.711C58.5573 126.702 58.5668 126.702 58.5754 126.702C58.584 126.702 58.584 126.702 58.584 126.702V126.693H58.5926C58.9024 126.523 59.2037 126.353 59.504 126.182C59.5746 126.148 59.6366 126.114 59.708 126.072C59.9558 125.926 60.2037 125.773 60.4507 125.62C60.5307 125.567 60.6099 125.517 60.6891 125.475C60.8492 125.364 61.0084 125.261 61.1668 125.15C61.2201 125.116 61.2735 125.082 61.3268 125.048C61.5919 124.869 61.8578 124.689 62.1143 124.503C62.1143 124.494 62.1143 124.494 62.1229 124.503C62.141 124.477 62.1582 124.468 62.1763 124.451C62.4061 124.281 62.6367 124.102 62.8665 123.922C62.876 123.931 62.876 123.931 62.8846 123.939C63.3889 124.433 63.9105 124.911 64.4595 125.354C64.7255 125.583 64.9992 125.805 65.2737 126.001C65.2823 126.018 65.2823 126.018 65.2918 126.01C65.5388 126.215 65.7961 126.402 66.0526 126.581C66.1145 126.624 66.167 126.667 66.2299 126.701C66.4863 126.888 66.7514 127.066 67.0259 127.229C67.6189 127.622 68.2377 127.979 68.8746 128.303C69.1939 128.474 69.5123 128.636 69.8393 128.789C70.1759 128.951 70.5115 129.096 70.848 129.233C70.8919 129.267 70.9367 129.283 70.9805 129.292C71.7413 129.616 72.5202 129.888 73.3163 130.136C73.6175 130.229 73.9179 130.315 74.2277 130.392C74.5014 130.469 74.7759 130.537 75.0505 130.596C75.1124 130.622 75.1744 130.63 75.245 130.64C76.1383 130.853 77.0583 131.005 77.9973 131.1C78.3157 131.143 78.6341 131.177 78.962 131.193C79.6075 131.253 80.2625 131.279 80.926 131.279H81.0413V131.28Z" fill="#E7ECF2"/>
<path d="M105.969 128.189L101.234 133.081C98.6765 135.724 95.2701 137.011 91.8723 137.011C87.7138 137.011 83.5724 135.067 81.086 131.334L81.0774 131.316L81.0421 131.273C88.1028 131.265 94.4921 128.453 99.0844 123.943L99.093 123.935C99.7213 124.438 100.376 124.906 101.048 125.341C101.119 125.392 101.181 125.434 101.252 125.477C101.57 125.681 101.898 125.877 102.225 126.073C102.588 126.287 102.96 126.491 103.331 126.687C103.393 126.704 103.438 126.738 103.491 126.764C104.269 127.182 105.039 127.616 105.791 128.076C105.853 128.112 105.907 128.146 105.969 128.189Z" fill="#E7ECF2"/>
<path d="M106.039 28.1938C106.039 33.9814 104.836 39.4879 102.65 44.5085C98.4648 54.1063 90.6959 61.9051 80.963 66.3463C75.2819 68.9379 68.9374 70.3871 62.2391 70.3871C58.0891 70.3871 54.0717 69.8324 50.2668 68.7928C48.6299 68.341 47.0377 67.8046 45.4886 67.1894C45.48 67.1812 45.48 67.1894 45.48 67.1894C45.2941 67.1132 45.1176 67.0361 44.9404 66.9598C44.7897 66.9009 44.6486 66.8404 44.5066 66.7807C43.5513 65.2387 42.6932 63.6271 41.9411 61.9565C41.1536 60.1923 40.4892 58.351 39.959 56.4592C39.0123 53.075 38.508 49.4952 38.508 45.8217C38.508 23.2428 57.5142 4.93341 80.963 4.93341C88.5727 4.93341 95.7133 6.8601 101.889 10.2434C102.154 10.7806 102.402 11.3261 102.65 11.8808C103.464 13.7387 104.128 15.6571 104.659 17.6335C105.562 21.0085 106.039 24.5452 106.039 28.1938Z" fill="#141720"/>
<path d="M123.407 45.8218C123.407 52.1889 121.894 58.2143 119.204 63.5849C111.877 58.9994 106.064 52.3596 102.649 44.5086C100.454 39.4879 99.251 33.9823 99.251 28.1939C99.251 22.4072 100.454 16.9007 102.649 11.88C102.79 11.5559 102.932 11.2408 103.083 10.9167C115.267 18.102 123.407 31.0491 123.407 45.8218Z" fill="#FFB600"/>
<path d="M116.992 43.7667V69.7978C116.992 70.1385 116.984 70.4718 116.975 70.8126C116.967 71.1193 116.957 71.4169 116.94 71.7245C116.93 71.9973 116.913 72.27 116.887 72.5428C116.877 72.7384 116.86 72.9349 116.842 73.1314C116.833 73.2508 116.825 73.361 116.807 73.4804C116.789 73.6935 116.771 73.9157 116.736 74.1279C116.701 74.5374 116.646 74.9387 116.585 75.3474C116.576 75.4494 116.559 75.5522 116.541 75.6542C116.515 75.8589 116.479 76.0629 116.443 76.2677V76.2934C116.435 76.3356 116.425 76.3696 116.425 76.4127C116.373 76.6689 116.328 76.9243 116.284 77.1796C116.204 77.5891 116.124 77.9979 116.036 78.3991C116.027 78.4165 116.027 78.4331 116.019 78.4505C116.01 78.5102 116.001 78.5707 115.984 78.6296C115.974 78.647 115.974 78.6636 115.966 78.681C115.93 78.8601 115.886 79.04 115.841 79.2099C115.832 79.253 115.824 79.287 115.815 79.3301C115.798 79.423 115.78 79.5175 115.744 79.6112C115.718 79.7645 115.673 79.9179 115.638 80.0721C115.612 80.1575 115.594 80.2504 115.558 80.3358C115.541 80.4129 115.514 80.4891 115.497 80.5579C115.311 81.2568 115.098 81.9383 114.877 82.6198C114.771 82.9439 114.664 83.259 114.549 83.5831C114.54 83.6171 114.523 83.6511 114.514 83.6851C114.417 83.9578 114.311 84.2397 114.213 84.5125C114.204 84.5299 114.204 84.5373 114.195 84.5547C114.16 84.641 114.125 84.7255 114.089 84.8192C113.983 85.0911 113.877 85.3647 113.762 85.6367C113.629 85.9691 113.488 86.2932 113.346 86.6174C113.222 86.9076 113.089 87.1969 112.957 87.4871C112.939 87.5385 112.913 87.5808 112.896 87.6322C112.745 87.9389 112.603 88.2456 112.453 88.5441C112.302 88.86 112.144 89.1758 111.975 89.4909C111.965 89.5083 111.958 89.5166 111.948 89.534C111.639 90.1383 111.303 90.7527 110.965 91.3413L110.488 92.1587C109.125 94.4179 107.612 96.5402 105.966 98.5001C105.745 98.7819 105.515 99.0547 105.276 99.3183C104.948 99.7022 104.611 100.077 104.276 100.443C103.993 100.75 103.701 101.065 103.4 101.364C103.39 101.381 103.382 101.388 103.364 101.406C102.515 102.285 101.647 103.119 100.763 103.904C100.586 104.075 100.4 104.228 100.214 104.39C99.9132 104.653 99.6128 104.909 99.3021 105.157C99.0637 105.361 98.8159 105.557 98.5689 105.754C97.932 106.257 97.2943 106.742 96.6488 107.194C96.3829 107.39 96.1092 107.578 95.8346 107.757C95.3923 108.064 94.9413 108.354 94.4895 108.635C94.2416 108.797 93.9851 108.951 93.7287 109.096C93.6839 109.121 93.6486 109.147 93.6039 109.164C92.7458 109.676 91.8697 110.144 91.0117 110.553C90.7896 110.665 90.5684 110.767 90.3481 110.869C90.1269 110.971 89.8963 111.073 89.6579 111.175C89.3653 111.303 89.0735 111.423 88.7809 111.534C88.6664 111.586 88.5511 111.627 88.4366 111.662C88.0915 111.798 87.7378 111.926 87.3927 112.037C86.9589 112.189 86.5157 112.318 86.0828 112.437C85.7825 112.522 85.4726 112.599 85.1714 112.667C85.1533 112.675 85.1361 112.684 85.1094 112.684C84.8082 112.752 84.5079 112.82 84.2075 112.872C84.1275 112.889 84.0474 112.906 83.9682 112.915C83.7204 112.958 83.4734 113.001 83.2255 113.026C82.8718 113.076 82.5181 113.119 82.1635 113.137C82.0404 113.154 81.9251 113.162 81.8012 113.162C81.518 113.18 81.2435 113.187 80.9698 113.187H80.9345C80.6608 113.187 80.3863 113.179 80.1117 113.162C80.005 113.162 79.8992 113.153 79.7933 113.137C79.5454 113.128 79.289 113.103 79.023 113.069C78.9697 113.069 78.9077 113.06 78.8552 113.052C78.5282 113.009 78.2003 112.959 77.8646 112.898C77.5815 112.855 77.2983 112.796 77.0066 112.728C75.4936 112.396 73.9367 111.892 72.3618 111.219C71.0166 110.649 69.6542 109.958 68.3004 109.157C68.2204 109.114 68.1498 109.064 68.0698 109.021C67.4682 108.662 66.858 108.279 66.265 107.878C65.9285 107.649 65.5929 107.418 65.2564 107.179C64.203 106.437 63.159 105.628 62.1332 104.758C61.85 104.511 61.5669 104.264 61.2837 104.008C61.0006 103.761 60.7174 103.506 60.4437 103.259C59.7888 102.654 59.1519 102.032 58.5409 101.375C58.4961 101.341 58.4617 101.298 58.4255 101.264C58.1691 101 57.9126 100.728 57.6553 100.447C56.9478 99.679 56.2576 98.8864 55.6027 98.0598C55.3462 97.7614 55.107 97.4546 54.8686 97.1471C53.9744 96.0046 53.1249 94.8117 52.3288 93.5756C52.1163 93.2439 51.9037 92.9015 51.7006 92.5699C51.4527 92.1695 51.2143 91.7608 50.9751 91.3504C50.6299 90.7535 50.3029 90.1491 49.9845 89.5356C49.4707 88.5723 49.0016 87.5841 48.5687 86.5776C48.462 86.3397 48.3562 86.1009 48.2675 85.8622C48.1264 85.5554 48.0016 85.2404 47.8871 84.9336C47.8338 84.7877 47.7726 84.6435 47.7279 84.4992C47.604 84.1916 47.4895 83.8857 47.3828 83.5781C47.2236 83.1271 47.073 82.6662 46.9223 82.2069C46.7803 81.7634 46.6478 81.3198 46.5239 80.8688C46.3827 80.3913 46.2502 79.9055 46.1349 79.4106C46.1263 79.3591 46.1082 79.3086 46.0996 79.258C46.0996 79.2406 46.091 79.2323 46.091 79.2149C45.9232 78.55 45.7811 77.8685 45.6486 77.1862C45.5953 76.9309 45.5514 76.6755 45.5161 76.4102C45.3921 75.7454 45.3044 75.0639 45.2243 74.3824C45.1804 74.084 45.1537 73.7855 45.1271 73.487C45.0918 73.172 45.0651 72.8653 45.047 72.5494C45.0031 71.979 44.9765 71.3987 44.9584 70.8192C44.9489 70.4785 44.9403 70.1452 44.9403 69.8044V43.7667C44.9403 25.2451 60.0091 10.1068 78.9895 9.11861C79.0248 9.10949 79.0514 9.10949 79.0867 9.10949C79.3346 9.1012 79.5825 9.09208 79.8303 9.08379C80.2021 9.0755 80.5653 9.06638 80.9362 9.06638H80.9715C81.3519 9.06638 81.7323 9.0755 82.1127 9.08379H82.1928C82.4587 9.0929 82.7238 9.1012 82.9897 9.11861H83.0155C83.1403 9.1269 83.2634 9.13602 83.3873 9.14348C83.6532 9.16089 83.9183 9.17747 84.1748 9.20317C84.3073 9.21146 84.4321 9.22058 84.5647 9.23716C84.6533 9.24545 84.7325 9.25457 84.8211 9.26203C86.2283 9.40794 87.6078 9.62847 88.9539 9.91863C91.2991 10.4301 93.5548 11.163 95.6961 12.0924C97.6953 12.9529 99.5982 13.9843 101.377 15.169C102.209 15.7145 103.005 16.294 103.775 16.9083C104.076 17.147 104.367 17.3858 104.66 17.6246V17.6329C106.367 19.0654 107.933 20.6423 109.322 22.3634C114.065 28.1857 116.924 35.4987 116.986 43.4592C116.992 43.5628 116.992 43.6648 116.992 43.7667Z" fill="#DFB28B"/>
<path d="M123.41 45.822C123.41 49.4872 122.905 53.0413 121.959 56.4246C121.446 58.3256 120.774 60.1669 119.977 61.9394C119.738 62.4932 119.481 63.0478 119.206 63.5842C118.454 63.1158 117.711 62.6208 116.995 62.0927C116.464 61.7263 115.941 61.3342 115.429 60.9337C114.146 59.9281 112.925 58.8537 111.765 57.7204C107.916 53.9358 104.811 49.4606 102.651 44.5079C98.466 54.1058 90.697 61.9045 80.9642 66.3457C75.2831 68.9373 68.9385 70.3865 62.2402 70.3865C58.0903 70.3865 54.0729 69.8318 50.268 68.7922C48.6311 68.3404 47.0389 67.804 45.4898 67.1889C45.4812 67.1806 45.4812 67.1889 45.4812 67.1889C45.2953 67.1126 45.1188 67.0355 44.9415 66.9592C44.7909 66.9003 44.6498 66.8398 44.5078 66.7801C43.5525 65.2381 42.6944 63.6265 41.9422 61.9559C41.1548 60.1917 40.4904 58.3504 39.9602 56.4586C39.0135 53.0744 38.5092 49.4946 38.5092 45.8211C38.5092 23.2422 57.5154 4.93282 80.9642 4.93282C88.5739 4.93282 95.7145 6.85951 101.89 10.2428C102.288 10.4559 102.687 10.6864 103.085 10.9168C115.269 18.1021 123.41 31.0493 123.41 45.822Z" fill="#FFB600"/>
</svg>
