<svg width="162" height="167" viewBox="0 0 162 167" fill="none" xmlns="http://www.w3.org/2000/svg">
<path d="M81 156.041C125.735 156.041 162 121.11 162 78.0205C162 34.931 125.735 0 81 0C36.2649 0 0 34.931 0 78.0205C0 121.11 36.2649 156.041 81 156.041Z" fill="#007BFE"/>
<path d="M127.962 166.491V166.5H34.0458V166.491C34.0458 161.383 34.9224 156.463 36.5514 151.884C36.8433 151.057 37.1627 150.239 37.5072 149.428V149.42C37.8438 148.61 38.2149 147.817 38.605 147.032C40.1539 143.886 42.0835 140.944 44.3239 138.249C44.8904 137.575 45.4656 136.919 46.0588 136.289C46.3507 135.964 46.6607 135.649 46.9707 135.333C47.2806 135.027 47.5906 134.72 47.9092 134.413C49.4935 132.887 51.1931 131.489 52.9815 130.201C53.8761 129.561 54.7784 128.965 55.717 128.385C56.1147 128.138 56.522 127.899 56.9293 127.669C57.1678 127.532 57.3985 127.396 57.637 127.26C57.7438 127.208 57.8411 127.158 57.947 127.098C58.1597 126.978 58.3715 126.868 58.5842 126.757C58.6022 126.74 58.6195 126.74 58.6195 126.74C59 126.545 59.3711 126.332 59.744 126.109C60.8504 125.47 61.9129 124.762 62.922 123.978C64.4004 122.844 65.7729 121.574 67.0033 120.184C68.1097 118.939 69.1102 117.6 69.9781 116.176C70.9433 114.624 71.757 112.979 72.395 111.256C72.7136 110.386 72.9969 109.499 73.2276 108.587C73.405 107.947 73.5462 107.299 73.6702 106.642C73.9707 105.005 74.13 103.316 74.13 101.594L80.9734 101.628H81.0087L82.2038 101.637L88.0105 101.662C88.0105 103.35 88.1612 105.005 88.4531 106.617C88.5685 107.282 88.7192 107.939 88.8957 108.587C89.117 109.482 89.3916 110.361 89.7016 111.212C90.3387 112.952 91.1447 114.615 92.109 116.175C92.8968 117.472 93.7915 118.691 94.7825 119.842C96.0749 121.368 97.536 122.75 99.1384 123.985C99.4751 124.25 99.8109 124.506 100.157 124.744C100.466 124.966 100.785 125.179 101.104 125.384C101.175 125.435 101.237 125.477 101.307 125.52C101.626 125.725 101.944 125.929 102.281 126.117C102.644 126.331 103.016 126.544 103.388 126.74C103.45 126.756 103.503 126.783 103.547 126.817C104.326 127.235 105.096 127.669 105.848 128.121C106.212 128.334 106.574 128.556 106.929 128.803C107.663 129.255 108.381 129.749 109.08 130.261C109.08 130.27 109.089 130.27 109.089 130.27H109.098C109.992 130.91 110.86 131.591 111.709 132.291C112.559 132.99 113.374 133.724 114.162 134.483C122.695 142.667 127.962 153.974 127.962 166.491Z" fill="#ECC19C"/>
<path d="M127.962 166.491H34.0458C34.0458 161.383 34.9224 156.463 36.5514 151.884C36.8433 151.057 37.1627 150.239 37.5072 149.428V149.42C37.8438 148.61 38.2149 147.817 38.605 147.032C40.1539 143.886 42.0835 140.944 44.3239 138.25C44.8904 137.575 45.4656 136.919 46.0588 136.289C46.3507 135.964 46.6607 135.65 46.9707 135.334C47.2806 135.027 47.5906 134.72 47.9092 134.413C49.4935 132.887 51.1931 131.489 52.9815 130.201C53.8761 129.561 54.7784 128.965 55.717 128.385C56.1147 128.138 56.522 127.899 56.9293 127.669C57.1678 127.533 57.3985 127.397 57.637 127.26C57.7438 127.208 57.8411 127.158 57.947 127.098C58.1597 126.979 58.3715 126.859 58.5842 126.749C58.6022 126.731 58.6195 126.74 58.6195 126.74V126.731C59 126.527 59.3711 126.322 59.744 126.109C60.8504 125.461 61.9129 124.744 62.9039 123.96C62.9125 123.968 62.9125 123.968 62.922 123.977C67.5078 128.496 73.8906 131.302 80.9725 131.319H81.0431C81.4332 131.319 81.8224 131.31 82.2029 131.285C88.8242 131.003 94.7911 128.258 99.1375 123.985L99.1462 123.977C99.7747 124.48 100.43 124.949 101.102 125.384C101.173 125.435 101.235 125.477 101.306 125.52C101.624 125.725 101.951 125.92 102.279 126.117C102.642 126.331 103.015 126.535 103.386 126.731C103.448 126.749 103.493 126.783 103.545 126.808C104.324 127.226 105.094 127.66 105.847 128.121C106.21 128.335 106.572 128.556 106.927 128.803C107.662 129.255 108.379 129.749 109.078 130.261H109.096C109.991 130.909 110.866 131.583 111.708 132.291C112.557 132.99 113.372 133.724 114.16 134.483C122.695 142.667 127.962 153.974 127.962 166.491Z" fill="#5AB7B2"/>
<path d="M95.5089 112.447V117.641C95.5089 118.459 95.2429 119.217 94.7831 119.84C94.0659 120.846 92.8622 121.503 91.4992 121.503H70.0132C68.8094 121.503 67.7297 120.991 67.003 120.181C66.3831 119.499 66.0025 118.612 66.0025 117.641V112.447C66.0025 110.98 66.8523 109.701 68.1008 109.054C68.6674 108.755 69.3226 108.584 70.0132 108.584H91.4983C92.2956 108.584 93.0301 108.806 93.6491 109.198C94.765 109.873 95.5089 111.083 95.5089 112.447Z" fill="#5AB7B2"/>
<path d="M100.157 124.743V136.067H56.9299V127.668C57.1684 127.531 57.3991 127.395 57.6376 127.258C57.7444 127.207 57.8417 127.156 57.9476 127.096C58.1603 126.977 58.3721 126.867 58.5848 126.756C58.6028 126.739 58.6201 126.739 58.6201 126.739C59.0006 126.543 59.3717 126.33 59.7446 126.108C60.851 125.468 61.9135 124.761 62.9226 123.976C64.401 122.843 65.7734 121.572 67.0039 120.182C68.1103 118.937 69.1108 117.599 69.9787 116.175H92.1096C92.8974 117.471 93.792 118.69 94.7831 119.841C96.0755 121.367 97.5366 122.749 99.139 123.985C99.4748 124.249 99.8106 124.505 100.157 124.743Z" fill="#5AB7B2"/>
<path d="M117.047 43.7804V69.711C117.047 70.0866 117.038 70.4615 117.03 70.8364C117.021 71.1432 117.011 71.4418 116.993 71.7487C116.985 72.0215 116.967 72.2944 116.94 72.5672C116.931 72.763 116.913 72.9595 116.896 73.1561C116.887 73.2755 116.879 73.3866 116.861 73.5052C116.843 73.7184 116.825 73.9398 116.789 74.153C116.754 74.5627 116.701 74.9632 116.639 75.3729C116.63 75.475 116.612 75.5778 116.595 75.6798C116.568 75.8847 116.533 76.0887 116.497 76.2935V76.3192C116.444 76.6178 116.392 76.9073 116.338 77.2058C116.259 77.6147 116.179 78.0244 116.09 78.425C116.082 78.4424 116.082 78.459 116.072 78.4764C116.063 78.5361 116.055 78.5958 116.037 78.6555C116.028 78.6729 116.028 78.6895 116.02 78.7069C115.976 78.9284 115.922 79.1415 115.869 79.3547C115.851 79.4484 115.834 79.5421 115.798 79.6358C115.772 79.7892 115.728 79.9427 115.691 80.0961C115.665 80.1815 115.648 80.2752 115.612 80.3598C115.594 80.437 115.568 80.5141 115.55 80.5821C115.364 81.2813 115.152 81.963 114.93 82.6455C114.824 82.9698 114.718 83.285 114.603 83.6093C114.595 83.6433 114.576 83.6772 114.568 83.7121C114.461 84.0015 114.355 84.2918 114.249 84.5813C114.214 84.6667 114.179 84.7513 114.143 84.8458C114.037 85.1187 113.93 85.3915 113.815 85.6644C113.683 85.997 113.541 86.3212 113.399 86.6455C113.275 86.9358 113.143 87.2252 113.01 87.5155C112.992 87.5669 112.966 87.6092 112.948 87.6606C112.798 87.9675 112.656 88.2744 112.506 88.5729C112.355 88.8881 112.196 89.2041 112.028 89.5192C111.709 90.1421 111.364 90.7641 111.019 91.3695L110.54 92.1881C109.177 94.4481 107.663 96.5712 106.017 98.5318C105.796 98.8138 105.566 99.0858 105.326 99.3504C104.998 99.7344 104.663 100.109 104.326 100.475C104.043 100.783 103.751 101.098 103.449 101.396C103.441 101.414 103.431 101.421 103.414 101.439C102.564 102.318 101.696 103.152 100.812 103.938C100.635 104.108 100.45 104.262 100.263 104.424C99.9614 104.687 99.6609 104.944 99.351 105.191C99.1116 105.396 98.8636 105.592 98.6165 105.788C97.9794 106.291 97.3413 106.777 96.6956 107.229C96.4295 107.425 96.1557 107.613 95.8811 107.792C95.4385 108.099 94.9873 108.389 94.5353 108.671C94.2873 108.832 94.0307 108.987 93.7741 109.132C93.7302 109.157 93.694 109.183 93.6501 109.2C92.7917 109.711 91.9152 110.18 91.0567 110.59C90.8354 110.701 90.6142 110.803 90.3929 110.905C90.1716 111.008 89.9417 111.11 89.7023 111.212C89.4105 111.339 89.1186 111.46 88.8258 111.57C88.7113 111.622 88.5959 111.664 88.4805 111.698C88.1353 111.835 87.7814 111.962 87.4361 112.073C87.0022 112.227 86.5596 112.355 86.1265 112.474C85.8251 112.559 85.5152 112.636 85.2147 112.704C85.1966 112.712 85.1794 112.721 85.1527 112.721C84.8513 112.789 84.5508 112.857 84.2503 112.909C84.1703 112.926 84.0902 112.943 84.011 112.952C83.763 112.995 83.515 113.036 83.267 113.063C82.9132 113.114 82.5593 113.157 82.2054 113.174C82.0814 113.191 81.966 113.199 81.8421 113.199C81.5588 113.215 81.285 113.225 81.0103 113.225H80.975C80.7003 113.225 80.4257 113.215 80.1519 113.199C80.0451 113.199 79.9392 113.191 79.8324 113.174C79.5844 113.165 79.3279 113.14 79.0618 113.106C79.0084 113.106 78.9473 113.097 78.8939 113.089C78.5659 113.045 78.2387 112.995 77.902 112.934C77.6187 112.891 77.3354 112.832 77.0436 112.764C75.5299 112.432 73.9714 111.928 72.3958 111.255C71.05 110.683 69.687 109.993 68.3326 109.191C68.2525 109.149 68.1819 109.098 68.1018 109.055C67.5 108.697 66.8886 108.313 66.2954 107.913C65.9587 107.683 65.6229 107.451 65.2863 107.213C64.2324 106.471 63.1888 105.662 62.1616 104.792C61.8783 104.544 61.5951 104.297 61.3118 104.041C61.0285 103.794 60.7452 103.539 60.4706 103.291C59.8153 102.686 59.1782 102.064 58.5677 101.407C58.5238 101.373 58.4885 101.33 58.4532 101.296C58.1966 101.032 57.94 100.759 57.6826 100.477C56.9739 99.7103 56.2834 98.9174 55.629 98.0906C55.3724 97.792 55.1331 97.4851 54.8937 97.1775C53.9991 96.0346 53.1501 94.8412 52.3528 93.6046C52.1402 93.272 51.9275 92.9303 51.7243 92.5986C51.4763 92.198 51.2378 91.7883 50.9984 91.3795C50.1133 89.8443 49.2988 88.2503 48.591 86.6049C48.4851 86.366 48.3783 86.1272 48.2897 85.8883C48.1476 85.5814 48.0236 85.2663 47.9091 84.9586C47.7317 84.5066 47.5638 84.0546 47.4037 83.6026C47.2444 83.1506 47.0946 82.6903 46.9439 82.23C46.8018 81.7863 46.6692 81.3435 46.5452 80.8915C46.4032 80.4138 46.2706 79.9278 46.156 79.4335C46.1474 79.382 46.1293 79.3314 46.1199 79.28C45.952 78.5983 45.8013 77.9074 45.6687 77.2083C45.4922 76.2869 45.3501 75.3489 45.2442 74.4026C45.1994 74.104 45.1727 73.8055 45.1469 73.5069C45.1116 73.1918 45.0849 72.8841 45.0677 72.5689C45.0229 71.9975 44.9962 71.4178 44.979 70.838C44.9704 70.4623 44.9609 70.0875 44.9609 69.7126V43.7804C44.9609 25.2518 60.0366 10.1078 79.0256 9.11843C79.0609 9.11014 79.0876 9.11014 79.1229 9.11014C79.3709 9.10184 79.6189 9.09272 79.8669 9.08443C80.2388 9.07613 80.6013 9.06784 80.9733 9.06784H81.0086C81.3892 9.06784 81.7697 9.07613 82.1503 9.08443H82.2304C82.4956 9.09272 82.7616 9.10184 83.0268 9.11843H83.0535C83.1775 9.12672 83.3015 9.13585 83.4255 9.14414C83.6915 9.16156 83.9567 9.17814 84.2133 9.20385C84.3459 9.21215 84.4699 9.22127 84.6034 9.23786C84.692 9.24615 84.7713 9.25527 84.8599 9.26357C86.2677 9.4087 87.6488 9.63014 88.9946 9.92042C91.3409 10.4321 93.5976 11.1653 95.7398 12.095C98.6613 13.3573 101.379 14.977 103.822 16.9127C105.876 18.5332 107.744 20.3578 109.372 22.3698C114.118 28.1935 116.976 35.5101 117.039 43.4735C117.047 43.5764 117.047 43.6784 117.047 43.7804Z" fill="#ECC19C"/>
</svg>
