<svg width="216" height="208" viewBox="0 0 216 208" fill="none" xmlns="http://www.w3.org/2000/svg">
<g filter="url(#filter0_d)">
<path d="M107.622 199.62C164.85 199.62 211.243 154.934 211.243 99.8102C211.243 44.6865 164.85 0 107.622 0C50.393 0 4 44.6865 4 99.8102C4 154.934 50.393 199.62 107.622 199.62Z" fill="#7F7DC5"/>
</g>
<g filter="url(#filter1_d)">
<path d="M88.7035 177.392V177.4H13.4329V177.392C13.4329 173.259 14.1354 169.277 15.441 165.572C15.6749 164.903 15.931 164.241 16.207 163.585V163.578C16.4768 162.922 16.7742 162.281 17.0868 161.646C18.3283 159.1 19.8748 156.719 21.6704 154.538C22.1244 153.993 22.5854 153.462 23.0609 152.952C23.2948 152.689 23.5432 152.434 23.7917 152.179C24.0401 151.93 24.2885 151.682 24.5439 151.434C25.8136 150.199 27.1758 149.067 28.6091 148.025C29.3261 147.508 30.0493 147.025 30.8015 146.556C31.1203 146.356 31.4468 146.163 31.7732 145.977C31.9643 145.866 32.1493 145.756 32.3404 145.645C32.426 145.604 32.504 145.563 32.5888 145.514C32.7593 145.418 32.9291 145.328 33.0995 145.238C33.114 145.225 33.1278 145.225 33.1278 145.225C33.4328 145.067 33.7302 144.894 34.029 144.714C34.9158 144.197 35.7674 143.624 36.5761 142.989C37.761 142.072 38.861 141.044 39.8471 139.919C40.7339 138.912 41.5358 137.828 42.2314 136.676C43.0049 135.42 43.6571 134.089 44.1684 132.694C44.4237 131.99 44.6508 131.273 44.8357 130.534C44.9779 130.017 45.091 129.492 45.1904 128.961C45.4313 127.636 45.5589 126.269 45.5589 124.876L51.0437 124.903H51.072L52.0298 124.91L56.6837 124.931C56.6837 126.297 56.8045 127.636 57.0384 128.94C57.1309 129.479 57.2517 130.01 57.3931 130.534C57.5705 131.259 57.7906 131.97 58.0391 132.659C58.5497 134.067 59.1956 135.413 59.9685 136.675C60.5999 137.724 61.3169 138.711 62.1112 139.642C63.147 140.877 64.3181 141.995 65.6023 142.995C65.8722 143.21 66.1413 143.417 66.4187 143.61C66.6665 143.789 66.9218 143.961 67.1778 144.127C67.2344 144.169 67.2841 144.203 67.3407 144.237C67.596 144.403 67.8513 144.569 68.1211 144.72C68.4117 144.893 68.7105 145.066 69.0079 145.224C69.0576 145.238 69.1004 145.259 69.1356 145.287C69.7601 145.625 70.377 145.977 70.9802 146.342C71.2714 146.515 71.5619 146.694 71.8462 146.894C72.4349 147.26 73.0097 147.66 73.57 148.074C73.57 148.081 73.5776 148.081 73.5776 148.081H73.5845C74.3015 148.599 74.9964 149.151 75.6775 149.717C76.3587 150.283 77.0115 150.877 77.6429 151.491C84.4823 158.114 88.7035 167.263 88.7035 177.392Z" fill="#ECC19C"/>
<path d="M88.7035 177.392H13.4329C13.4329 173.26 14.1354 169.278 15.441 165.572C15.6749 164.903 15.931 164.241 16.207 163.585V163.578C16.4768 162.923 16.7742 162.281 17.0868 161.646C18.3283 159.1 19.8748 156.719 21.6704 154.539C22.1244 153.993 22.5854 153.462 23.0609 152.952C23.2948 152.689 23.5432 152.435 23.7917 152.179C24.0401 151.931 24.2885 151.682 24.5439 151.434C25.8136 150.199 27.1758 149.067 28.6091 148.025C29.3261 147.508 30.0493 147.025 30.8015 146.556C31.1203 146.356 31.4468 146.163 31.7732 145.977C31.9643 145.866 32.1493 145.756 32.3404 145.645C32.426 145.604 32.504 145.563 32.5888 145.514C32.7593 145.418 32.9291 145.321 33.0995 145.232C33.114 145.218 33.1278 145.225 33.1278 145.225V145.218C33.4328 145.052 33.7302 144.886 34.029 144.714C34.9158 144.19 35.7674 143.609 36.5616 142.975C36.5685 142.982 36.5685 142.982 36.5761 142.989C40.2515 146.646 45.3671 148.916 51.043 148.931H51.0996C51.4122 148.931 51.7241 148.923 52.0291 148.903C57.3359 148.675 62.1181 146.453 65.6017 142.996L65.6086 142.989C66.1123 143.396 66.6375 143.776 67.1764 144.127C67.233 144.169 67.2827 144.203 67.3393 144.237C67.5946 144.403 67.8568 144.561 68.1198 144.72C68.4103 144.894 68.7091 145.059 69.0065 145.218C69.0562 145.232 69.0921 145.259 69.1342 145.28C69.7587 145.618 70.3756 145.969 70.9788 146.343C71.27 146.515 71.5605 146.694 71.8448 146.894C72.4335 147.26 73.0083 147.66 73.5687 148.074H73.5831C74.3001 148.598 75.002 149.144 75.6762 149.716C76.3573 150.282 77.0101 150.876 77.6415 151.49C84.4823 158.114 88.7035 167.264 88.7035 177.392Z" fill="#5AB7B2"/>
<path d="M62.6933 133.658V137.861C62.6933 138.523 62.4801 139.137 62.1116 139.641C61.5368 140.455 60.572 140.987 59.4796 140.987H42.2593C41.2946 140.987 40.4292 140.573 39.8468 139.917C39.3499 139.365 39.0449 138.647 39.0449 137.861V133.658C39.0449 132.471 39.726 131.436 40.7267 130.912C41.1807 130.67 41.7059 130.532 42.2593 130.532H59.4789C60.1179 130.532 60.7066 130.711 61.2028 131.029C62.0971 131.575 62.6933 132.554 62.6933 133.658Z" fill="#5AB7B2"/>
<path d="M66.4185 143.608V152.772H31.7737V145.976C31.9648 145.865 32.1498 145.755 32.3409 145.644C32.4265 145.602 32.5045 145.561 32.5893 145.513C32.7598 145.416 32.9296 145.327 33.1 145.237C33.1145 145.224 33.1283 145.224 33.1283 145.224C33.4333 145.065 33.7307 144.893 34.0295 144.713C34.9163 144.196 35.7679 143.623 36.5766 142.988C37.7615 142.071 38.8615 141.043 39.8476 139.918C40.7344 138.91 41.5363 137.827 42.2319 136.675H59.969C60.6004 137.724 61.3174 138.71 62.1117 139.642C63.1475 140.877 64.3186 141.995 65.6028 142.995C65.872 143.209 66.1411 143.416 66.4185 143.608Z" fill="#5AB7B2"/>
<path d="M79.9552 78.0907V99.0747C79.9552 99.3787 79.9483 99.6821 79.9414 99.9854C79.9345 100.234 79.9269 100.475 79.9124 100.724C79.9055 100.944 79.891 101.165 79.8696 101.386C79.8627 101.544 79.8482 101.704 79.8344 101.863C79.8275 101.959 79.8206 102.049 79.8061 102.145C79.7917 102.318 79.7772 102.497 79.7489 102.669C79.7206 103.001 79.6778 103.325 79.6281 103.657C79.6212 103.739 79.6067 103.822 79.5929 103.905C79.5715 104.071 79.5432 104.236 79.5149 104.402V104.422C79.4721 104.664 79.43 104.898 79.3873 105.14C79.3238 105.471 79.2596 105.802 79.1885 106.126C79.1816 106.14 79.1816 106.154 79.174 106.168C79.1671 106.216 79.1602 106.265 79.1457 106.313C79.1388 106.327 79.1388 106.34 79.1319 106.355C79.0967 106.534 79.0539 106.706 79.0112 106.879C78.9967 106.955 78.9829 107.03 78.9546 107.106C78.9332 107.23 78.898 107.355 78.869 107.479C78.8476 107.548 78.8338 107.624 78.8055 107.692C78.791 107.755 78.7696 107.817 78.7558 107.872C78.6068 108.438 78.437 108.989 78.259 109.542C78.1741 109.804 78.0885 110.059 77.9967 110.322C77.9898 110.349 77.9753 110.377 77.9684 110.405C77.8829 110.639 77.798 110.874 77.7131 111.108C77.6848 111.177 77.6565 111.246 77.6275 111.322C77.5427 111.543 77.4571 111.764 77.3653 111.985C77.259 112.254 77.1452 112.516 77.032 112.779C76.9326 113.014 76.8264 113.248 76.7201 113.483C76.7056 113.524 76.6849 113.559 76.6704 113.6C76.5496 113.849 76.4365 114.097 76.3157 114.338C76.1949 114.594 76.0673 114.849 75.9327 115.104C75.6774 115.608 75.4007 116.112 75.1239 116.602L74.7403 117.264C73.6479 119.093 72.4347 120.811 71.1152 122.398C70.9379 122.626 70.7537 122.846 70.5618 123.06C70.2989 123.371 70.0298 123.674 69.7599 123.97C69.5329 124.219 69.299 124.474 69.0574 124.716C69.0505 124.73 69.0429 124.736 69.0291 124.75C68.348 125.461 67.6524 126.137 66.9437 126.772C66.8015 126.91 66.6532 127.034 66.5034 127.165C66.2619 127.379 66.0211 127.586 65.7726 127.787C65.5808 127.952 65.3821 128.111 65.184 128.269C64.6733 128.677 64.162 129.07 63.6444 129.436C63.4312 129.594 63.2117 129.747 62.9916 129.892C62.6369 130.14 62.2753 130.375 61.913 130.602C61.7143 130.733 61.5086 130.858 61.303 130.975C61.2678 130.996 61.2388 131.017 61.2036 131.03C60.5156 131.444 59.8131 131.824 59.1251 132.155C58.9477 132.245 58.7704 132.328 58.593 132.41C58.4157 132.494 58.2314 132.576 58.0396 132.659C57.8056 132.762 57.5717 132.859 57.3371 132.949C57.2453 132.991 57.1528 133.024 57.0604 133.052C56.7836 133.163 56.5 133.266 56.2233 133.356C55.8755 133.48 55.5208 133.584 55.1737 133.68C54.9322 133.749 54.6837 133.811 54.4429 133.866C54.4284 133.873 54.4146 133.88 54.3932 133.88C54.1517 133.935 53.9108 133.99 53.67 134.032C53.6058 134.046 53.5416 134.06 53.4781 134.067C53.2794 134.102 53.0807 134.135 52.8819 134.157C52.5983 134.198 52.3147 134.233 52.031 134.247C51.9317 134.261 51.8392 134.267 51.7398 134.267C51.5128 134.28 51.2933 134.288 51.0732 134.288H51.0449C50.8248 134.288 50.6046 134.28 50.3852 134.267C50.2996 134.267 50.2148 134.26 50.1292 134.247C49.9304 134.239 49.7248 134.219 49.5116 134.192C49.4688 134.192 49.4198 134.184 49.377 134.177C49.1141 134.143 48.8518 134.102 48.582 134.053C48.355 134.018 48.1279 133.97 47.894 133.915C46.6808 133.646 45.4318 133.239 44.1689 132.694C43.0904 132.231 41.9979 131.673 40.9125 131.024C40.8483 130.99 40.7917 130.948 40.7275 130.914C40.2451 130.624 39.7552 130.313 39.2797 129.989C39.0099 129.803 38.7408 129.616 38.4709 129.423C37.6263 128.822 36.7899 128.167 35.9666 127.463C35.7396 127.263 35.5126 127.063 35.2855 126.856C35.0585 126.656 34.8315 126.449 34.6113 126.249C34.0862 125.759 33.5755 125.256 33.0862 124.724C33.051 124.697 33.0228 124.662 32.9945 124.634C32.7888 124.421 32.5832 124.2 32.3768 123.972C31.8089 123.351 31.2555 122.71 30.731 122.041C30.5253 121.799 30.3335 121.551 30.1417 121.302C29.4247 120.377 28.7442 119.411 28.1052 118.41C27.9348 118.141 27.7643 117.865 27.6015 117.596C27.4027 117.272 27.2116 116.941 27.0197 116.61C26.3103 115.367 25.6575 114.077 25.0903 112.746C25.0054 112.553 24.9198 112.359 24.8487 112.166C24.7349 111.918 24.6355 111.663 24.5437 111.414C24.4016 111.048 24.267 110.682 24.1386 110.316C24.011 109.951 23.8909 109.578 23.7701 109.206C23.6563 108.847 23.55 108.488 23.4506 108.122C23.3368 107.736 23.2305 107.342 23.1387 106.942C23.1318 106.901 23.1173 106.86 23.1097 106.818C22.9752 106.267 22.8544 105.708 22.7481 105.142C22.6067 104.396 22.4928 103.637 22.4079 102.871C22.372 102.63 22.3506 102.388 22.3299 102.146C22.3016 101.891 22.2802 101.642 22.2664 101.387C22.2306 100.925 22.2092 100.456 22.1954 99.9868C22.1885 99.6827 22.1809 99.3794 22.1809 99.076V78.0907C22.1809 63.0967 34.2635 50.8416 49.4826 50.0409C49.5109 50.0342 49.5323 50.0342 49.5606 50.0342C49.7593 50.0275 49.958 50.0201 50.1568 50.0134C50.4549 50.0067 50.7454 50 51.0435 50H51.0718C51.3769 50 51.6819 50.0067 51.9869 50.0134H52.0511C52.2636 50.0201 52.4768 50.0275 52.6894 50.0409H52.7108C52.8101 50.0477 52.9095 50.055 53.0089 50.0617C53.2221 50.0758 53.4347 50.0893 53.6403 50.1101C53.7466 50.1168 53.846 50.1242 53.9529 50.1376C54.024 50.1443 54.0875 50.1517 54.1586 50.1584C55.2869 50.2758 56.3937 50.455 57.4723 50.6899C59.3528 51.104 61.1615 51.6973 62.8784 52.4497C65.2199 53.4712 67.3978 54.7819 69.3562 56.3483C71.0021 57.6598 72.4996 59.1363 73.8045 60.7645C77.6075 65.4772 79.8986 71.3981 79.949 77.8424C79.9552 77.9256 79.9552 78.0082 79.9552 78.0907Z" fill="#ECC19C"/>
</g>
<g filter="url(#filter2_d)">
<path d="M198.703 177.524L198.703 177.531L123.433 177.4L123.433 177.393C123.44 173.26 124.15 169.279 125.462 165.576C125.697 164.907 125.954 164.246 126.231 163.59L126.231 163.583C126.502 162.928 126.801 162.287 127.114 161.653C128.36 159.109 129.911 156.731 131.71 154.553C132.165 154.008 132.627 153.478 133.103 152.969C133.338 152.706 133.587 152.453 133.836 152.197C134.084 151.949 134.333 151.701 134.589 151.454C135.861 150.221 137.225 149.092 138.66 148.052C139.378 147.536 140.102 147.054 140.855 146.587C141.174 146.387 141.501 146.194 141.828 146.009C142.019 145.899 142.204 145.789 142.396 145.679C142.481 145.637 142.559 145.596 142.644 145.548C142.815 145.452 142.985 145.363 143.155 145.273C143.17 145.26 143.184 145.26 143.184 145.26C143.489 145.102 143.787 144.93 144.086 144.751C144.974 144.235 145.826 143.664 146.636 143.03C147.822 142.115 148.924 141.089 149.912 139.965C150.801 138.96 151.605 137.878 152.302 136.727C153.078 135.472 153.732 134.142 154.246 132.748C154.503 132.045 154.731 131.327 154.917 130.59C155.06 130.072 155.174 129.548 155.275 129.016C155.518 127.692 155.648 126.326 155.65 124.932L161.135 124.969L161.163 124.97L162.121 124.978L166.775 125.007C166.773 126.373 166.891 127.712 167.123 129.017C167.214 129.555 167.334 130.087 167.475 130.611C167.651 131.336 167.87 132.048 168.117 132.737C168.625 134.146 169.269 135.493 170.039 136.757C170.669 137.807 171.384 138.795 172.177 139.728C173.211 140.964 174.38 142.085 175.662 143.087C175.932 143.301 176.2 143.509 176.477 143.702C176.725 143.883 176.98 144.055 177.236 144.221C177.292 144.263 177.342 144.297 177.398 144.331C177.653 144.498 177.908 144.664 178.178 144.816C178.468 144.99 178.767 145.163 179.064 145.322C179.114 145.335 179.156 145.357 179.191 145.384C179.815 145.724 180.432 146.076 181.034 146.443C181.325 146.616 181.615 146.796 181.899 146.996C182.487 147.363 183.061 147.764 183.621 148.179C183.621 148.187 183.629 148.187 183.629 148.187L183.635 148.187C184.352 148.705 185.046 149.258 185.726 149.826C186.406 150.393 187.058 150.988 187.688 151.603C194.516 158.238 198.721 167.395 198.703 177.524Z" fill="#ECC19C"/>
<path d="M198.703 177.524L123.433 177.393C123.44 173.26 124.15 169.279 125.462 165.576C125.697 164.907 125.954 164.246 126.231 163.59L126.231 163.584C126.502 162.928 126.801 162.287 127.114 161.653C128.36 159.109 129.911 156.731 131.71 154.553C132.165 154.009 132.627 153.479 133.103 152.969C133.338 152.707 133.587 152.453 133.836 152.197C134.084 151.95 134.333 151.702 134.589 151.454C135.861 150.221 137.225 149.092 138.66 148.052C139.378 147.536 140.102 147.055 140.855 146.587C141.174 146.387 141.501 146.195 141.828 146.009C142.019 145.899 142.204 145.789 142.396 145.679C142.481 145.637 142.559 145.596 142.644 145.548C142.815 145.452 142.985 145.356 143.155 145.267C143.17 145.253 143.184 145.259 143.184 145.259L143.184 145.253C143.489 145.087 143.787 144.922 144.086 144.75C144.974 144.228 145.826 143.648 146.622 143.016C146.628 143.022 146.628 143.022 146.636 143.03C150.305 146.693 155.417 148.973 161.093 148.997L161.149 148.997C161.462 148.997 161.774 148.99 162.079 148.971C167.386 148.752 172.172 146.539 175.661 143.087L175.668 143.08C176.171 143.488 176.696 143.869 177.234 144.221C177.291 144.263 177.34 144.297 177.397 144.332C177.652 144.498 177.914 144.657 178.177 144.816C178.467 144.99 178.765 145.155 179.062 145.315C179.112 145.329 179.148 145.357 179.19 145.377C179.814 145.716 180.43 146.069 181.033 146.443C181.324 146.616 181.614 146.796 181.898 146.997C182.486 147.363 183.06 147.764 183.62 148.179L183.634 148.179C184.35 148.705 185.051 149.252 185.724 149.825C186.404 150.392 187.056 150.987 187.687 151.603C194.516 158.238 198.721 167.395 198.703 177.524Z" fill="#5AB7B2"/>
<path d="M172.769 133.745L172.762 137.948C172.761 138.609 172.547 139.223 172.177 139.727C171.601 140.54 170.635 141.069 169.543 141.068L152.323 141.038C151.358 141.036 150.493 140.62 149.912 139.964C149.416 139.411 149.112 138.692 149.114 137.907L149.121 133.704C149.123 132.517 149.806 131.483 150.808 130.96C151.262 130.72 151.787 130.582 152.341 130.583L169.56 130.613C170.199 130.614 170.788 130.795 171.283 131.113C172.177 131.661 172.771 132.641 172.769 133.745Z" fill="#5AB7B2"/>
<path d="M176.477 143.701L176.461 152.865L141.817 152.805L141.828 146.008C142.02 145.898 142.205 145.788 142.396 145.677C142.482 145.636 142.56 145.595 142.645 145.547C142.815 145.451 142.985 145.362 143.156 145.272C143.17 145.259 143.184 145.259 143.184 145.259C143.49 145.101 143.787 144.929 144.086 144.749C144.974 144.234 145.827 143.663 146.637 143.029C147.823 142.114 148.925 141.087 149.913 139.964C150.801 138.958 151.605 137.877 152.303 136.725L170.04 136.756C170.669 137.806 171.385 138.794 172.177 139.727C173.211 140.964 174.38 142.084 175.663 143.086C175.931 143.301 176.2 143.508 176.477 143.701Z" fill="#5AB7B2"/>
<path d="M190.128 78.2071L190.091 99.1911C190.091 99.4951 190.084 99.7984 190.076 100.102C190.069 100.35 190.061 100.592 190.046 100.84C190.039 101.061 190.024 101.282 190.002 101.502C189.995 101.661 189.98 101.82 189.966 101.979C189.959 102.075 189.952 102.165 189.937 102.261C189.922 102.434 189.907 102.613 189.879 102.785C189.85 103.117 189.807 103.441 189.756 103.772C189.749 103.855 189.735 103.938 189.721 104.021C189.699 104.186 189.671 104.351 189.642 104.517L189.642 104.538C189.599 104.779 189.556 105.014 189.513 105.255C189.449 105.586 189.384 105.917 189.313 106.241C189.306 106.255 189.306 106.269 189.298 106.283C189.291 106.331 189.284 106.38 189.269 106.428C189.263 106.442 189.262 106.455 189.256 106.47C189.22 106.649 189.177 106.821 189.134 106.993C189.119 107.069 189.105 107.145 189.077 107.221C189.055 107.345 189.02 107.469 188.991 107.593C188.969 107.662 188.955 107.738 188.927 107.807C188.912 107.869 188.891 107.931 188.877 107.986C188.727 108.552 188.556 109.103 188.377 109.655C188.292 109.918 188.206 110.172 188.113 110.435C188.107 110.462 188.092 110.49 188.085 110.518C187.999 110.752 187.914 110.987 187.828 111.221C187.8 111.29 187.772 111.358 187.743 111.435C187.657 111.655 187.571 111.876 187.479 112.097C187.372 112.366 187.258 112.628 187.144 112.89C187.045 113.125 186.938 113.359 186.831 113.594C186.817 113.635 186.796 113.669 186.781 113.711C186.66 113.959 186.547 114.207 186.425 114.449C186.304 114.703 186.176 114.959 186.041 115.214C185.785 115.717 185.507 116.22 185.23 116.71L184.845 117.371C183.749 119.198 182.533 120.914 181.211 122.499C181.033 122.726 180.849 122.946 180.656 123.16C180.393 123.47 180.123 123.773 179.853 124.069C179.625 124.317 179.391 124.572 179.149 124.813C179.142 124.827 179.135 124.833 179.121 124.847C178.438 125.557 177.742 126.231 177.032 126.866C176.889 127.003 176.741 127.128 176.591 127.258C176.349 127.471 176.108 127.678 175.859 127.879C175.667 128.043 175.468 128.202 175.269 128.36C174.758 128.767 174.246 129.159 173.728 129.524C173.514 129.682 173.295 129.834 173.074 129.978C172.719 130.226 172.357 130.46 171.994 130.687C171.795 130.818 171.59 130.942 171.384 131.059C171.349 131.079 171.32 131.101 171.284 131.114C170.596 131.526 169.892 131.905 169.204 132.235C169.026 132.325 168.849 132.407 168.671 132.49C168.494 132.572 168.309 132.655 168.117 132.737C167.883 132.84 167.649 132.937 167.414 133.026C167.323 133.068 167.23 133.101 167.138 133.128C166.861 133.239 166.577 133.342 166.3 133.431C165.952 133.555 165.597 133.657 165.25 133.753C165.008 133.822 164.76 133.883 164.519 133.938C164.504 133.945 164.49 133.952 164.469 133.952C164.227 134.007 163.986 134.061 163.745 134.102C163.681 134.116 163.617 134.13 163.554 134.137C163.355 134.172 163.156 134.205 162.957 134.226C162.673 134.267 162.39 134.301 162.106 134.314C162.007 134.328 161.914 134.334 161.815 134.334C161.588 134.347 161.368 134.354 161.148 134.354L161.12 134.354C160.9 134.353 160.68 134.345 160.46 134.332C160.375 134.331 160.29 134.325 160.204 134.311C160.006 134.303 159.8 134.283 159.587 134.255C159.544 134.255 159.495 134.247 159.452 134.241C159.189 134.205 158.927 134.164 158.657 134.114C158.43 134.079 158.204 134.031 157.97 133.976C156.757 133.704 155.509 133.295 154.247 132.748C153.169 132.283 152.078 131.723 150.993 131.072C150.929 131.038 150.873 130.996 150.808 130.962C150.327 130.671 149.837 130.359 149.362 130.034C149.093 129.848 148.824 129.66 148.554 129.467C147.711 128.865 146.876 128.209 146.054 127.503C145.827 127.302 145.6 127.102 145.374 126.895C145.147 126.694 144.92 126.487 144.7 126.287C144.176 125.796 143.666 125.292 143.178 124.759C143.143 124.732 143.115 124.697 143.086 124.669C142.881 124.455 142.676 124.234 142.47 124.006C141.903 123.384 141.351 122.741 140.827 122.071C140.622 121.829 140.431 121.581 140.239 121.331C139.524 120.405 138.845 119.438 138.208 118.436C138.038 118.167 137.868 117.89 137.706 117.621C137.507 117.297 137.317 116.965 137.126 116.634C136.418 115.39 135.768 114.099 135.203 112.767C135.118 112.573 135.033 112.38 134.962 112.186C134.849 111.938 134.75 111.683 134.659 111.434C134.517 111.068 134.383 110.702 134.255 110.336C134.128 109.97 134.009 109.597 133.889 109.224C133.776 108.865 133.67 108.506 133.571 108.14C133.458 107.754 133.352 107.36 133.261 106.96C133.255 106.918 133.24 106.877 133.233 106.836C133.099 106.284 132.979 105.725 132.874 105.159C132.734 104.413 132.621 103.653 132.538 102.888C132.502 102.646 132.481 102.404 132.461 102.163C132.433 101.907 132.412 101.658 132.399 101.403C132.364 100.941 132.343 100.472 132.33 100.003C132.324 99.6985 132.317 99.3952 132.317 99.0918L132.354 78.1065C132.38 63.1125 144.484 50.8785 159.704 50.1043C159.733 50.0977 159.754 50.0977 159.782 50.0978C159.981 50.0914 160.18 50.0844 160.379 50.078C160.677 50.0718 160.967 50.0656 161.265 50.0661L161.294 50.0662C161.599 50.0667 161.904 50.0739 162.209 50.0812L162.273 50.0813C162.485 50.0884 162.699 50.0961 162.911 50.1099L162.932 50.11C163.032 50.1169 163.131 50.1244 163.231 50.1313C163.444 50.1458 163.656 50.1595 163.862 50.1807C163.968 50.1876 164.068 50.1952 164.174 50.2088C164.246 50.2156 164.309 50.2231 164.38 50.2299C165.508 50.3494 166.615 50.5305 167.693 50.7673C169.573 51.1846 171.38 51.7811 173.096 52.5364C175.436 53.562 177.611 54.8765 179.567 56.4463C181.21 57.7606 182.705 59.2397 184.008 60.8702C187.802 65.5896 190.083 71.5144 190.122 77.9588C190.128 78.042 190.128 78.1246 190.128 78.2071Z" fill="#ECC19C"/>
</g>
<g filter="url(#filter3_d)">
<path d="M143.704 168.392V168.4H68.4329V168.392C68.4329 164.259 69.1354 160.277 70.441 156.572C70.6749 155.903 70.931 155.241 71.207 154.585V154.578C71.4768 153.922 71.7742 153.281 72.0868 152.646C73.3283 150.1 74.8748 147.719 76.6704 145.538C77.1244 144.993 77.5854 144.462 78.0609 143.952C78.2948 143.689 78.5432 143.434 78.7917 143.179C79.0401 142.93 79.2885 142.682 79.5439 142.434C80.8136 141.199 82.1758 140.067 83.6091 139.025C84.3261 138.508 85.0493 138.025 85.8015 137.556C86.1203 137.356 86.4468 137.163 86.7732 136.977C86.9643 136.866 87.1493 136.756 87.3404 136.645C87.426 136.604 87.504 136.563 87.5888 136.514C87.7593 136.418 87.9291 136.328 88.0995 136.238C88.114 136.225 88.1278 136.225 88.1278 136.225C88.4328 136.067 88.7302 135.894 89.029 135.714C89.9158 135.197 90.7674 134.624 91.5761 133.989C92.761 133.072 93.861 132.044 94.8471 130.919C95.7339 129.912 96.5358 128.828 97.2314 127.676C98.0049 126.42 98.6571 125.089 99.1684 123.694C99.4237 122.99 99.6508 122.273 99.8357 121.534C99.9779 121.017 100.091 120.492 100.19 119.961C100.431 118.636 100.559 117.269 100.559 115.876L106.044 115.903H106.072L107.03 115.91L111.684 115.931C111.684 117.297 111.804 118.636 112.038 119.94C112.131 120.479 112.252 121.01 112.393 121.534C112.57 122.259 112.791 122.97 113.039 123.659C113.55 125.067 114.196 126.413 114.969 127.675C115.6 128.724 116.317 129.711 117.111 130.642C118.147 131.877 119.318 132.995 120.602 133.995C120.872 134.21 121.141 134.417 121.419 134.61C121.666 134.789 121.922 134.961 122.178 135.127C122.234 135.169 122.284 135.203 122.341 135.237C122.596 135.403 122.851 135.569 123.121 135.72C123.412 135.893 123.71 136.066 124.008 136.224C124.058 136.238 124.1 136.259 124.136 136.287C124.76 136.625 125.377 136.977 125.98 137.342C126.271 137.515 126.562 137.694 126.846 137.894C127.435 138.26 128.01 138.66 128.57 139.074C128.57 139.081 128.578 139.081 128.578 139.081H128.585C129.302 139.599 129.996 140.151 130.678 140.717C131.359 141.283 132.011 141.877 132.643 142.491C139.482 149.114 143.704 158.263 143.704 168.392Z" fill="#ECC19C"/>
<path d="M144 168H68C68 163.917 68.7093 159.984 70.0276 156.323C70.2638 155.662 70.5223 155.009 70.801 154.36V154.353C71.0734 153.706 71.3738 153.072 71.6894 152.445C72.9429 149.929 74.5043 147.578 76.3173 145.423C76.7758 144.884 77.2412 144.36 77.7213 143.856C77.9575 143.596 78.2084 143.345 78.4592 143.092C78.71 142.847 78.9609 142.602 79.2187 142.356C80.5007 141.137 81.8761 140.019 83.3233 138.989C84.0473 138.478 84.7775 138.001 85.537 137.538C85.8589 137.34 86.1884 137.149 86.518 136.966C86.711 136.856 86.8978 136.747 87.0908 136.638C87.1772 136.597 87.2559 136.557 87.3416 136.509C87.5137 136.413 87.6851 136.318 87.8572 136.23C87.8718 136.216 87.8858 136.222 87.8858 136.222V136.216C88.1937 136.052 88.494 135.888 88.7957 135.718C89.6911 135.2 90.5509 134.627 91.3529 134C91.3599 134.007 91.3599 134.007 91.3675 134.014C95.0785 137.627 100.244 139.87 105.975 139.883H106.032C106.347 139.883 106.662 139.876 106.97 139.856C112.328 139.631 117.157 137.436 120.674 134.021L120.681 134.014C121.19 134.416 121.72 134.791 122.264 135.138C122.321 135.179 122.372 135.213 122.429 135.247C122.687 135.411 122.951 135.567 123.217 135.724C123.51 135.896 123.812 136.059 124.112 136.216C124.162 136.23 124.199 136.257 124.241 136.277C124.872 136.611 125.495 136.958 126.104 137.327C126.398 137.497 126.691 137.674 126.978 137.872C127.572 138.233 128.153 138.628 128.718 139.037H128.733C129.457 139.555 130.166 140.094 130.846 140.66C131.534 141.219 132.193 141.806 132.831 142.412C139.738 148.955 144 157.994 144 168Z" fill="#5AB7B2"/>
<path d="M146 177H66C66 172.197 66.7466 167.569 68.1343 163.263C68.3829 162.485 68.6551 161.716 68.9484 160.953V160.945C69.2352 160.183 69.5513 159.437 69.8836 158.7C71.203 155.74 72.8467 152.974 74.7551 150.439C75.2377 149.805 75.7276 149.188 76.233 148.595C76.4816 148.29 76.7456 147.994 77.0097 147.697C77.2737 147.408 77.5377 147.12 77.8091 146.831C79.1587 145.396 80.6065 144.081 82.1298 142.87C82.8919 142.268 83.6605 141.707 84.46 141.162C84.7988 140.93 85.1457 140.705 85.4926 140.489C85.6958 140.36 85.8924 140.232 86.0955 140.104C86.1865 140.055 86.2694 140.008 86.3596 139.952C86.5407 139.839 86.7212 139.727 86.9023 139.623C86.9177 139.607 86.9324 139.615 86.9324 139.615V139.607C87.2566 139.414 87.5727 139.221 87.8903 139.021C88.8327 138.412 89.7378 137.737 90.582 137C90.5893 137.008 90.5893 137.008 90.5974 137.016C94.5037 141.267 99.9407 143.905 105.973 143.922H106.033C106.366 143.922 106.697 143.913 107.021 143.89C112.661 143.625 117.744 141.043 121.447 137.024L121.454 137.016C121.989 137.489 122.548 137.931 123.12 138.339C123.18 138.388 123.233 138.427 123.293 138.467C123.565 138.66 123.844 138.844 124.123 139.029C124.432 139.23 124.749 139.422 125.065 139.607C125.118 139.623 125.156 139.655 125.201 139.679C125.865 140.072 126.521 140.48 127.162 140.914C127.471 141.114 127.78 141.323 128.082 141.555C128.708 141.98 129.319 142.445 129.914 142.926H129.93C130.692 143.536 131.438 144.17 132.154 144.835C132.878 145.493 133.572 146.183 134.243 146.897C141.514 154.594 146 165.228 146 177Z" fill="#5AB7B2"/>
<path d="M117.693 124.658V128.861C117.693 129.523 117.48 130.137 117.112 130.641C116.537 131.455 115.572 131.987 114.48 131.987H97.2593C96.2946 131.987 95.4292 131.573 94.8468 130.917C94.3499 130.365 94.0449 129.647 94.0449 128.861V124.658C94.0449 123.471 94.726 122.436 95.7267 121.912C96.1807 121.67 96.7059 121.532 97.2593 121.532H114.479C115.118 121.532 115.707 121.711 116.203 122.029C117.097 122.575 117.693 123.554 117.693 124.658Z" fill="#5AB7B2"/>
<path d="M121.419 134.608V143.772H86.7737V136.976C86.9648 136.865 87.1498 136.755 87.3409 136.644C87.4265 136.602 87.5045 136.561 87.5893 136.513C87.7598 136.416 87.9296 136.327 88.1 136.237C88.1145 136.224 88.1283 136.224 88.1283 136.224C88.4333 136.065 88.7307 135.893 89.0295 135.713C89.9163 135.196 90.7679 134.623 91.5766 133.988C92.7615 133.071 93.8615 132.043 94.8476 130.918C95.7344 129.91 96.5363 128.827 97.2319 127.675H114.969C115.6 128.724 116.317 129.71 117.112 130.642C118.148 131.877 119.319 132.995 120.603 133.995C120.872 134.209 121.141 134.416 121.419 134.608Z" fill="#5AB7B2"/>
<path d="M134.955 69.0907V90.0747C134.955 90.3787 134.948 90.6821 134.941 90.9854C134.934 91.2337 134.927 91.4753 134.912 91.7237C134.906 91.9445 134.891 92.1653 134.87 92.3861C134.863 92.5445 134.848 92.7035 134.834 92.8626C134.828 92.9592 134.821 93.0492 134.806 93.1451C134.792 93.3176 134.777 93.4968 134.749 93.6693C134.721 94.0009 134.678 94.325 134.628 94.6566C134.621 94.7391 134.607 94.8223 134.593 94.9049C134.572 95.0707 134.543 95.2358 134.515 95.4015V95.4223C134.472 95.6639 134.43 95.8982 134.387 96.1398C134.324 96.4707 134.26 96.8022 134.189 97.1264C134.182 97.1405 134.182 97.1539 134.174 97.168C134.167 97.2163 134.16 97.2646 134.146 97.3129C134.139 97.327 134.139 97.3405 134.132 97.3546C134.097 97.5338 134.054 97.7062 134.011 97.8787C133.997 97.9546 133.983 98.0304 133.955 98.1062C133.933 98.2304 133.898 98.3546 133.869 98.4787C133.848 98.5479 133.834 98.6237 133.806 98.6921C133.791 98.7546 133.77 98.817 133.756 98.872C133.607 99.4378 133.437 99.9895 133.259 100.542C133.174 100.804 133.089 101.059 132.997 101.322C132.99 101.349 132.975 101.377 132.968 101.405C132.883 101.639 132.798 101.874 132.713 102.108C132.685 102.177 132.657 102.246 132.628 102.322C132.543 102.543 132.457 102.764 132.365 102.985C132.259 103.254 132.145 103.516 132.032 103.779C131.933 104.014 131.826 104.248 131.72 104.483C131.706 104.524 131.685 104.559 131.67 104.6C131.55 104.849 131.436 105.097 131.316 105.338C131.195 105.594 131.067 105.849 130.933 106.104C130.677 106.608 130.401 107.112 130.124 107.602L129.74 108.264C128.648 110.093 127.435 111.811 126.115 113.398C125.938 113.626 125.754 113.846 125.562 114.06C125.299 114.371 125.03 114.674 124.76 114.97C124.533 115.219 124.299 115.474 124.057 115.716C124.051 115.73 124.043 115.736 124.029 115.75C123.348 116.461 122.652 117.137 121.944 117.772C121.802 117.91 121.653 118.034 121.503 118.165C121.262 118.379 121.021 118.586 120.773 118.787C120.581 118.952 120.382 119.111 120.184 119.269C119.673 119.677 119.162 120.07 118.644 120.436C118.431 120.594 118.212 120.747 117.992 120.892C117.637 121.14 117.275 121.375 116.913 121.602C116.714 121.733 116.509 121.858 116.303 121.975C116.268 121.996 116.239 122.017 116.204 122.03C115.516 122.444 114.813 122.824 114.125 123.155C113.948 123.245 113.77 123.328 113.593 123.41C113.416 123.494 113.231 123.576 113.04 123.659C112.806 123.762 112.572 123.859 112.337 123.949C112.245 123.991 112.153 124.024 112.06 124.052C111.784 124.163 111.5 124.266 111.223 124.356C110.875 124.48 110.521 124.584 110.174 124.68C109.932 124.749 109.684 124.811 109.443 124.866C109.428 124.873 109.415 124.88 109.393 124.88C109.152 124.935 108.911 124.99 108.67 125.032C108.606 125.046 108.542 125.06 108.478 125.067C108.279 125.102 108.081 125.135 107.882 125.157C107.598 125.198 107.315 125.233 107.031 125.247C106.932 125.261 106.839 125.267 106.74 125.267C106.513 125.28 106.293 125.288 106.073 125.288H106.045C105.825 125.288 105.605 125.28 105.385 125.267C105.3 125.267 105.215 125.26 105.129 125.247C104.93 125.239 104.725 125.219 104.512 125.192C104.469 125.192 104.42 125.184 104.377 125.177C104.114 125.143 103.852 125.102 103.582 125.053C103.355 125.018 103.128 124.97 102.894 124.915C101.681 124.646 100.432 124.239 99.1689 123.694C98.0904 123.231 96.9979 122.673 95.9125 122.024C95.8483 121.99 95.7917 121.948 95.7275 121.914C95.2451 121.624 94.7552 121.313 94.2797 120.989C94.0099 120.803 93.7408 120.616 93.4709 120.423C92.6263 119.822 91.7899 119.167 90.9666 118.463C90.7396 118.263 90.5126 118.063 90.2855 117.856C90.0585 117.656 89.8315 117.449 89.6113 117.249C89.0862 116.759 88.5755 116.256 88.0862 115.724C88.051 115.697 88.0228 115.662 87.9945 115.634C87.7888 115.421 87.5832 115.2 87.3768 114.972C86.8089 114.351 86.2555 113.71 85.731 113.041C85.5253 112.799 85.3335 112.551 85.1417 112.302C84.4247 111.377 83.7442 110.411 83.1052 109.41C82.9348 109.141 82.7643 108.865 82.6015 108.596C82.4027 108.272 82.2116 107.941 82.0197 107.61C81.3103 106.367 80.6575 105.077 80.0903 103.746C80.0054 103.553 79.9198 103.359 79.8487 103.166C79.7349 102.918 79.6355 102.663 79.5437 102.414C79.4016 102.048 79.267 101.682 79.1386 101.316C79.011 100.951 78.8909 100.578 78.7701 100.206C78.6563 99.8465 78.55 99.4881 78.4506 99.1224C78.3368 98.7358 78.2305 98.3425 78.1387 97.9425C78.1318 97.9009 78.1173 97.8599 78.1097 97.8183C77.9752 97.2666 77.8544 96.7076 77.7481 96.1418C77.6067 95.3962 77.4928 94.6371 77.4079 93.8713C77.372 93.6297 77.3506 93.3881 77.3299 93.1465C77.3016 92.8915 77.2802 92.6425 77.2664 92.3874C77.2306 91.925 77.2092 91.4559 77.1954 90.9868C77.1885 90.6827 77.1809 90.3794 77.1809 90.076V69.0907C77.1809 54.0967 89.2635 41.8416 104.483 41.0409C104.511 41.0342 104.532 41.0342 104.561 41.0342C104.759 41.0275 104.958 41.0201 105.157 41.0134C105.455 41.0067 105.745 41 106.044 41H106.072C106.377 41 106.682 41.0067 106.987 41.0134H107.051C107.264 41.0201 107.477 41.0275 107.689 41.0409H107.711C107.81 41.0477 107.91 41.055 108.009 41.0617C108.222 41.0758 108.435 41.0893 108.64 41.1101C108.747 41.1168 108.846 41.1242 108.953 41.1376C109.024 41.1443 109.087 41.1517 109.159 41.1584C110.287 41.2758 111.394 41.455 112.472 41.6899C114.353 42.104 116.162 42.6973 117.878 43.4497C120.22 44.4712 122.398 45.7819 124.356 47.3483C126.002 48.6598 127.5 50.1363 128.804 51.7645C132.608 56.4772 134.899 62.3981 134.949 68.8424C134.955 68.9256 134.955 69.0082 134.955 69.0907Z" fill="#ECC19C"/>
</g>
<defs>
<filter id="filter0_d" x="0" y="0" width="215.243" height="207.62" filterUnits="userSpaceOnUse" color-interpolation-filters="sRGB">
<feFlood flood-opacity="0" result="BackgroundImageFix"/>
<feColorMatrix in="SourceAlpha" type="matrix" values="0 0 0 0 0 0 0 0 0 0 0 0 0 0 0 0 0 0 127 0"/>
<feOffset dy="4"/>
<feGaussianBlur stdDeviation="2"/>
<feColorMatrix type="matrix" values="0 0 0 0 0 0 0 0 0 0 0 0 0 0 0 0 0 0 0.25 0"/>
<feBlend mode="normal" in2="BackgroundImageFix" result="effect1_dropShadow"/>
<feBlend mode="normal" in="SourceGraphic" in2="effect1_dropShadow" result="shape"/>
</filter>
<filter id="filter1_d" x="9.43286" y="50" width="83.2707" height="135.4" filterUnits="userSpaceOnUse" color-interpolation-filters="sRGB">
<feFlood flood-opacity="0" result="BackgroundImageFix"/>
<feColorMatrix in="SourceAlpha" type="matrix" values="0 0 0 0 0 0 0 0 0 0 0 0 0 0 0 0 0 0 127 0"/>
<feOffset dy="4"/>
<feGaussianBlur stdDeviation="2"/>
<feColorMatrix type="matrix" values="0 0 0 0 0 0 0 0 0 0 0 0 0 0 0 0 0 0 0.25 0"/>
<feBlend mode="normal" in2="BackgroundImageFix" result="effect1_dropShadow"/>
<feBlend mode="normal" in="SourceGraphic" in2="effect1_dropShadow" result="shape"/>
</filter>
<filter id="filter2_d" x="119.433" y="50.0159" width="83.362" height="135.515" filterUnits="userSpaceOnUse" color-interpolation-filters="sRGB">
<feFlood flood-opacity="0" result="BackgroundImageFix"/>
<feColorMatrix in="SourceAlpha" type="matrix" values="0 0 0 0 0 0 0 0 0 0 0 0 0 0 0 0 0 0 127 0"/>
<feOffset dy="4"/>
<feGaussianBlur stdDeviation="2"/>
<feColorMatrix type="matrix" values="0 0 0 0 0 0 0 0 0 0 0 0 0 0 0 0 0 0 0.25 0"/>
<feBlend mode="normal" in2="BackgroundImageFix" result="effect1_dropShadow"/>
<feBlend mode="normal" in="SourceGraphic" in2="effect1_dropShadow" result="shape"/>
</filter>
<filter id="filter3_d" x="62" y="41" width="88" height="144" filterUnits="userSpaceOnUse" color-interpolation-filters="sRGB">
<feFlood flood-opacity="0" result="BackgroundImageFix"/>
<feColorMatrix in="SourceAlpha" type="matrix" values="0 0 0 0 0 0 0 0 0 0 0 0 0 0 0 0 0 0 127 0"/>
<feOffset dy="4"/>
<feGaussianBlur stdDeviation="2"/>
<feColorMatrix type="matrix" values="0 0 0 0 0 0 0 0 0 0 0 0 0 0 0 0 0 0 0.25 0"/>
<feBlend mode="normal" in2="BackgroundImageFix" result="effect1_dropShadow"/>
<feBlend mode="normal" in="SourceGraphic" in2="effect1_dropShadow" result="shape"/>
</filter>
</defs>
</svg>
